<svg id="noun-building-1741291" xmlns="http://www.w3.org/2000/svg" width="18.794" height="20.09" viewBox="0 0 18.794 20.09">
  <g id="Group_61" data-name="Group 61">
    <path id="Path_47" data-name="Path 47" d="M24.214,22.942V9.765h-4.1V5.66h-1.08V3.5H13.2V5.66h-1.08v7.328A2.416,2.416,0,0,0,8.8,15.965a2.411,2.411,0,0,0,2.022,4.353v2.624H6.5v.648H25.294v-.648Zm-.648-12.529V22.942H20.11V10.413Zm-5.4,12.529H16.437V19.7h1.728Zm-2.376,0H14.061V19.7h1.728ZM13.845,4.148h4.537V5.66H13.845Zm-1.08,2.16h6.7V22.942h-.648V19.054h-5.4v3.888h-.648Zm-2.732,13.5a1.767,1.767,0,0,1-.691-3.393l.32-.136-.158-.31a1.745,1.745,0,0,1-.192-.8,1.763,1.763,0,0,1,2.805-1.426v5.785a1.7,1.7,0,0,1-.254.02,1.78,1.78,0,0,1-.394-.049V15.165H10.82v3.011l-.951-.92-.451.466,1.4,1.356v.543A1.757,1.757,0,0,1,10.033,19.807Zm1.436.351a2.4,2.4,0,0,0,.394.036,2.25,2.25,0,0,0,.254-.017v2.764h-.648Z" transform="translate(-6.5 -3.5)"/>
    <rect id="Rectangle_211" data-name="Rectangle 211" width="0.693" height="0.693" transform="translate(6.928 3.464)"/>
    <rect id="Rectangle_212" data-name="Rectangle 212" width="0.693" height="0.693" transform="translate(8.313 3.464)"/>
    <rect id="Rectangle_213" data-name="Rectangle 213" width="0.693" height="0.693" transform="translate(11.777 3.464)"/>
    <rect id="Rectangle_214" data-name="Rectangle 214" width="1.386" height="0.693" transform="translate(9.699 3.464)"/>
    <rect id="Rectangle_215" data-name="Rectangle 215" width="0.693" height="0.693" transform="translate(6.928 4.849)"/>
    <rect id="Rectangle_216" data-name="Rectangle 216" width="0.693" height="0.693" transform="translate(8.313 4.849)"/>
    <rect id="Rectangle_217" data-name="Rectangle 217" width="0.693" height="0.693" transform="translate(11.777 4.849)"/>
    <rect id="Rectangle_218" data-name="Rectangle 218" width="1.386" height="0.693" transform="translate(9.699 4.849)"/>
    <rect id="Rectangle_219" data-name="Rectangle 219" width="0.693" height="1.386" transform="translate(6.928 6.235)"/>
    <rect id="Rectangle_220" data-name="Rectangle 220" width="0.693" height="1.386" transform="translate(8.313 6.235)"/>
    <rect id="Rectangle_221" data-name="Rectangle 221" width="0.693" height="1.386" transform="translate(11.777 6.235)"/>
    <rect id="Rectangle_222" data-name="Rectangle 222" width="1.386" height="1.386" transform="translate(9.699 6.235)"/>
    <rect id="Rectangle_223" data-name="Rectangle 223" width="0.693" height="0.693" transform="translate(6.928 8.313)"/>
    <rect id="Rectangle_224" data-name="Rectangle 224" width="0.693" height="0.693" transform="translate(8.313 8.313)"/>
    <rect id="Rectangle_225" data-name="Rectangle 225" width="0.693" height="0.693" transform="translate(11.777 8.313)"/>
    <rect id="Rectangle_226" data-name="Rectangle 226" width="1.386" height="0.693" transform="translate(9.699 8.313)"/>
    <rect id="Rectangle_227" data-name="Rectangle 227" width="0.693" height="0.693" transform="translate(6.928 9.699)"/>
    <rect id="Rectangle_228" data-name="Rectangle 228" width="0.693" height="0.693" transform="translate(8.313 9.699)"/>
    <rect id="Rectangle_229" data-name="Rectangle 229" width="0.693" height="0.693" transform="translate(11.777 9.699)"/>
    <rect id="Rectangle_230" data-name="Rectangle 230" width="1.386" height="0.693" transform="translate(9.699 9.699)"/>
    <rect id="Rectangle_231" data-name="Rectangle 231" width="0.693" height="0.693" transform="translate(6.928 11.084)"/>
    <rect id="Rectangle_232" data-name="Rectangle 232" width="0.693" height="0.693" transform="translate(8.313 11.084)"/>
    <rect id="Rectangle_233" data-name="Rectangle 233" width="0.693" height="0.693" transform="translate(11.777 11.084)"/>
    <rect id="Rectangle_234" data-name="Rectangle 234" width="1.386" height="0.693" transform="translate(9.699 11.084)"/>
    <rect id="Rectangle_235" data-name="Rectangle 235" width="0.693" height="0.693" transform="translate(6.928 12.47)"/>
    <rect id="Rectangle_236" data-name="Rectangle 236" width="0.693" height="0.693" transform="translate(8.313 12.47)"/>
    <rect id="Rectangle_237" data-name="Rectangle 237" width="0.693" height="0.693" transform="translate(11.777 12.47)"/>
    <rect id="Rectangle_238" data-name="Rectangle 238" width="1.386" height="0.693" transform="translate(9.699 12.47)"/>
    <rect id="Rectangle_239" data-name="Rectangle 239" width="0.693" height="1.386" transform="translate(6.928 13.855)"/>
    <rect id="Rectangle_240" data-name="Rectangle 240" width="0.693" height="1.386" transform="translate(8.313 13.855)"/>
    <rect id="Rectangle_241" data-name="Rectangle 241" width="0.693" height="1.386" transform="translate(11.777 13.855)"/>
    <rect id="Rectangle_242" data-name="Rectangle 242" width="1.386" height="1.386" transform="translate(9.699 13.855)"/>
    <rect id="Rectangle_243" data-name="Rectangle 243" width="0.693" height="0.693" transform="translate(15.241 8.313)"/>
    <rect id="Rectangle_244" data-name="Rectangle 244" width="0.693" height="0.693" transform="translate(15.241 9.699)"/>
    <rect id="Rectangle_245" data-name="Rectangle 245" width="0.693" height="0.693" transform="translate(15.241 11.084)"/>
    <rect id="Rectangle_246" data-name="Rectangle 246" width="0.693" height="1.386" transform="translate(15.241 12.47)"/>
    <rect id="Rectangle_247" data-name="Rectangle 247" width="0.693" height="0.693" transform="translate(15.241 14.548)"/>
    <rect id="Rectangle_248" data-name="Rectangle 248" width="0.693" height="0.693" transform="translate(15.241 15.934)"/>
    <rect id="Rectangle_249" data-name="Rectangle 249" width="0.693" height="0.693" transform="translate(15.241 17.319)"/>
  </g>
</svg>
