<svg xmlns="http://www.w3.org/2000/svg" width="25.456" height="42.427" viewBox="0 0 25.456 42.427">
  <path id="bx-dollar" d="M27.212,15.789h4.243c0-6.018-5.844-8.763-10.607-9.4V2H16.606V6.393C11.843,7.025,6,9.77,6,15.789c0,5.74,5.655,8.725,10.607,9.4V35.729c-3.072-.532-6.364-2.172-6.364-5.091H6c0,5.492,5.144,8.738,10.607,9.41v4.378h4.243V40.036c4.762-.632,10.607-3.379,10.607-9.4s-5.844-8.763-10.607-9.4V10.7C23.67,11.2,27.212,12.694,27.212,15.789Zm-16.971,0c0-3.1,3.543-4.584,6.364-5.091v10.18C13.7,20.341,10.242,18.752,10.242,15.789ZM27.212,30.638c0,3.1-3.543,4.584-6.364,5.091V25.547C23.67,26.054,27.212,27.543,27.212,30.638Z" transform="translate(-5.999 -2)" fill="#fff"/>
</svg>
