<svg xmlns="http://www.w3.org/2000/svg" width="33.834" height="25.375" viewBox="0 0 33.834 25.375">
  <g id="bx-tachometer" transform="translate(-2 -4)">
    <path id="Path_34" data-name="Path 34" d="M18.917,4A16.936,16.936,0,0,0,2,20.917a16.731,16.731,0,0,0,1.778,7.52,1.694,1.694,0,0,0,1.514.939H32.54a1.7,1.7,0,0,0,1.516-.939,16.731,16.731,0,0,0,1.778-7.52A16.936,16.936,0,0,0,18.917,4ZM31.452,25.992H6.382a13.322,13.322,0,0,1-1-5.075,13.534,13.534,0,1,1,27.067,0,13.322,13.322,0,0,1-1,5.075Z" fill="#fff"/>
    <path id="Path_35" data-name="Path 35" d="M11.418,15.683a2.592,2.592,0,1,0,3.588,3.588l6.7-10.214a.058.058,0,0,0,0-.059.056.056,0,0,0-.076-.017l-10.214,6.7Z" transform="translate(5.704 3.439)" fill="#fff"/>
  </g>
</svg>
