<svg id="noun-cars-5022156" xmlns="http://www.w3.org/2000/svg" width="22.619" height="16.41" viewBox="0 0 22.619 16.41">
  <path id="Path_41" data-name="Path 41" d="M12.716,32.2H10.564a.809.809,0,0,0-.808.808v.867a.809.809,0,0,0,.808.808h2.152a.809.809,0,0,0,.808-.808v-.867A.809.809,0,0,0,12.716,32.2Zm0,1.675H10.564s0-.869,0-.867h2.152Z" transform="translate(-7.431 -23.914)"/>
  <path id="Path_42" data-name="Path 42" d="M13.181,40.449h-2.7a.4.4,0,1,0,0,.808h2.7a.4.4,0,1,0,0-.808Z" transform="translate(-7.623 -28.831)"/>
  <path id="Path_43" data-name="Path 43" d="M47.878,32.2H45.726a.809.809,0,0,0-.808.808v.867a.809.809,0,0,0,.808.808h2.152a.809.809,0,0,0,.808-.808v-.867a.809.809,0,0,0-.808-.808Zm0,1.675H45.726v-.867h2.152Z" transform="translate(-28.39 -23.914)"/>
  <path id="Path_44" data-name="Path 44" d="M48.343,40.449h-2.7a.4.4,0,1,0,0,.808h2.7a.4.4,0,1,0,0-.808Z" transform="translate(-28.582 -28.831)"/>
  <path id="Path_45" data-name="Path 45" d="M29.584,35.21a1.206,1.206,0,0,0-1.18-.936h-5.68a1.207,1.207,0,0,0-1.18.936l-.311,1.334a1.219,1.219,0,0,0,1.18,1.487h6.3a1.219,1.219,0,0,0,1.18-1.487Zm-.552,1.861a.4.4,0,0,1-.316.153h-6.3a.406.406,0,0,1-.393-.5l.311-1.334a.4.4,0,0,1,.393-.312H28.4a.4.4,0,0,1,.393.312l.312,1.335a.4.4,0,0,1-.077.343Z" transform="translate(-14.254 -25.15)"/>
  <path id="Path_46" data-name="Path 46" d="M25.812,15.094H24.433a.958.958,0,0,0-.837.632l-.973-1.753a4.444,4.444,0,0,0-3.885-2.288H11.881A4.445,4.445,0,0,0,8,13.974l-.972,1.753a.959.959,0,0,0-.837-.632H4.808A.809.809,0,0,0,4,15.9v.866a.809.809,0,0,0,.808.808h.634a1.826,1.826,0,0,0-.736,1.4V24.1A1.605,1.605,0,0,0,5.53,25.5a.387.387,0,0,0-.019.092v1.387A1.116,1.116,0,0,0,6.629,28.1H8.74a1.116,1.116,0,0,0,1.118-1.113v-.978c1.727.116,3.671.209,5.453.209s3.725-.094,5.452-.209v.978A1.116,1.116,0,0,0,21.88,28.1H23.99a1.116,1.116,0,0,0,1.117-1.113V25.6a.387.387,0,0,0-.018-.092,1.605,1.605,0,0,0,.825-1.407V18.974a1.825,1.825,0,0,0-.736-1.4h.634a.809.809,0,0,0,.808-.808V15.9A.809.809,0,0,0,25.812,15.094ZM8.7,14.366a3.637,3.637,0,0,1,3.179-1.872h6.858a3.637,3.637,0,0,1,3.179,1.872l1.1,1.977a58.131,58.131,0,0,1-7.7.428,58.127,58.127,0,0,1-7.7-.428Zm-3.894,2.4V15.9H6.186l.361.6-.274.266ZM9.05,26.984a.3.3,0,0,1-.31.3H6.629a.308.308,0,0,1-.31-.3V25.721c.728.068,1.669.15,2.73.228Zm14.941.3H21.88a.3.3,0,0,1-.31-.3V25.949c1.061-.078,2-.16,2.73-.228v1.263a.308.308,0,0,1-.31.3Zm1.116-3.19a.8.8,0,0,1-.728.8c-1.988.189-5.809.5-9.068.5s-7.081-.316-9.069-.5a.8.8,0,0,1-.728-.8V18.974a.812.812,0,0,1,.245-.579c.28-.278,1.083-1.048,1.347-1.309a54.069,54.069,0,0,0,8.2.492,54.065,54.065,0,0,0,8.2-.492c.272.258,1.067,1.041,1.347,1.309a.812.812,0,0,1,.245.579Zm.705-7.331H24.347l-.274-.266.361-.6h1.378Z" transform="translate(-4 -11.686)"/>
</svg>
