<svg xmlns="http://www.w3.org/2000/svg" width="529" height="904" viewBox="0 0 529 904">
  <g id="Group_109" data-name="Group 109" transform="translate(65.766 -2289.674)">
    <circle id="Ellipse_6" data-name="Ellipse 6" cx="31.5" cy="31.5" r="31.5" transform="translate(167.234 2289.674)" fill="#cce28d"/>
    <text id="Step_1_:_Select_the_Property_" data-name="Step 1 : Select the Property 
" transform="translate(-29.766 2369.674)" font-size="30" font-family="Montserrat" font-weight="600"><tspan x="21.675" y="29">Step 1 : Select the Property </tspan><tspan x="228" y="59"></tspan></text>
    <line id="Line_29" data-name="Line 29" y2="151" transform="translate(198.234 2453.674)" fill="none" stroke="#000" stroke-width="1" opacity="0.64"/>
    <circle id="Ellipse_9" data-name="Ellipse 9" cx="13.5" cy="13.5" r="13.5" transform="translate(185.234 2515.674)" fill="#2e3192"/>
    <g id="Group_47" data-name="Group 47" transform="translate(191.818 2526.622)">
      <line id="Line_31" data-name="Line 31" x2="7.568" y2="7.568" transform="translate(0)" fill="none" stroke="#fff" stroke-width="3"/>
      <line id="Line_32" data-name="Line 32" x1="7.568" y2="7.568" transform="translate(5.886)" fill="none" stroke="#fff" stroke-width="3"/>
    </g>
    <ellipse id="Ellipse_7" data-name="Ellipse 7" cx="31.5" cy="31" rx="31.5" ry="31" transform="translate(167.234 2617.674)" fill="#cde391"/>
    <g id="bx-tachometer" transform="translate(181.997 2636.412)">
      <path id="Path_34" data-name="Path 34" d="M18.068,4A16.087,16.087,0,0,0,2,20.068a15.892,15.892,0,0,0,1.689,7.142,1.609,1.609,0,0,0,1.438.892H31.008a1.611,1.611,0,0,0,1.44-.892,15.892,15.892,0,0,0,1.689-7.142A16.087,16.087,0,0,0,18.068,4ZM29.975,24.889H6.162a12.654,12.654,0,0,1-.948-4.821,12.855,12.855,0,1,1,25.709,0,12.654,12.654,0,0,1-.948,4.821Z" transform="translate(-2 -4)" fill="#fff"/>
      <path id="Path_35" data-name="Path 35" d="M11.359,15.346a2.462,2.462,0,1,0,3.408,3.408l6.366-9.7a.055.055,0,0,0,0-.056.053.053,0,0,0-.072-.016l-9.7,6.366Z" transform="translate(3.004 -0.983)" fill="#fff"/>
    </g>
    <text id="Step_2_:_Check_Availability_" data-name="Step 2 : Check Availability 
" transform="translate(-24.766 2715.674)" font-size="30" font-family="Montserrat" font-weight="600"><tspan x="26.4" y="29">Step 2 : Check Availability </tspan><tspan x="223.5" y="59"></tspan></text>
    <line id="Line_33" data-name="Line 33" y2="151" transform="translate(198.234 2800.674)" fill="none" stroke="#000" stroke-width="1" opacity="0.64"/>
    <circle id="Ellipse_11" data-name="Ellipse 11" cx="13.5" cy="13.5" r="13.5" transform="translate(185.234 2861.674)" fill="#2e3192"/>
    <g id="Group_49" data-name="Group 49" transform="translate(191.818 2872.632)">
      <line id="Line_31-2" data-name="Line 31" x2="7.568" y2="7.568" transform="translate(0 0)" fill="none" stroke="#fff" stroke-width="3"/>
      <line id="Line_32-2" data-name="Line 32" x1="7.568" y2="7.568" transform="translate(5.886 0)" fill="none" stroke="#fff" stroke-width="3"/>
    </g>
    <circle id="Ellipse_8" data-name="Ellipse 8" cx="31.5" cy="31.5" r="31.5" transform="translate(167.234 2977.674)" fill="#cce28d"/>
    <path id="bx-dollar" d="M26.148,15.1h4.03c0-5.716-5.551-8.324-10.075-8.924V2h-4.03V6.173C11.55,6.773,6,9.381,6,15.1c0,5.452,5.372,8.287,10.075,8.926V34.037c-2.918-.506-6.045-2.063-6.045-4.836H6c0,5.217,4.886,8.3,10.075,8.938V42.3H20.1V38.128c4.524-.6,10.075-3.21,10.075-8.926S24.627,20.878,20.1,20.277V10.261C22.783,10.743,26.148,12.157,26.148,15.1Zm-16.119,0c0-2.94,3.365-4.354,6.045-4.836v9.67C13.311,19.421,10.029,17.912,10.029,15.1ZM26.148,29.2c0,2.94-3.365,4.354-6.045,4.836V24.366C22.783,24.847,26.148,26.262,26.148,29.2Z" transform="translate(179.977 2986.956)" fill="#fff"/>
    <text id="Step_3_:_Contact_us_for_more_info" data-name="Step 3 : Contact us for more info" transform="translate(-65.766 3082.674)" font-size="30" font-family="Montserrat" font-weight="600"><tspan x="16.775" y="29">Step 3 : Contact us for more info</tspan></text>
    <g id="noun-building-1741291" transform="translate(181.745 2303.9)">
      <g id="Group_61" data-name="Group 61">
        <path id="Path_47" data-name="Path 47" d="M37.264,37.265V14.38H30.136V7.252H28.259V3.5H18.13V7.252H16.254V19.978a4.2,4.2,0,0,0-5.763,5.17A4.187,4.187,0,0,0,14,32.708v4.557H6.5V38.39H39.139V37.265ZM36.138,15.505V37.265h-6V15.505ZM26.759,37.264h-3V31.637h3Zm-4.127,0h-3V31.637h3ZM19.256,4.625h7.878V7.252H19.256ZM17.38,8.377H29.01V37.264H27.885V30.512H18.505v6.753H17.38ZM12.635,31.821a3.069,3.069,0,0,1-1.2-5.893l.555-.236-.274-.538a3.031,3.031,0,0,1-.334-1.394,3.061,3.061,0,0,1,4.871-2.476V31.331a2.955,2.955,0,0,1-.442.035,3.092,3.092,0,0,1-.684-.086V23.759H14v5.229l-1.651-1.6-.783.809L14,30.554V31.5A3.052,3.052,0,0,1,12.635,31.821Zm2.493.609a4.158,4.158,0,0,0,.684.063,3.908,3.908,0,0,0,.442-.029v4.8H15.129Z" transform="translate(-6.5 -3.5)" fill="#fff"/>
        <rect id="Rectangle_211" data-name="Rectangle 211" width="1.203" height="1.203" transform="translate(12.031 6.016)" fill="#fff"/>
        <rect id="Rectangle_212" data-name="Rectangle 212" width="1.203" height="1.203" transform="translate(14.437 6.016)" fill="#fff"/>
        <rect id="Rectangle_213" data-name="Rectangle 213" width="1.203" height="1.203" transform="translate(20.453 6.016)" fill="#fff"/>
        <rect id="Rectangle_214" data-name="Rectangle 214" width="2.406" height="1.203" transform="translate(16.844 6.016)" fill="#fff"/>
        <rect id="Rectangle_215" data-name="Rectangle 215" width="1.203" height="1.203" transform="translate(12.031 8.422)" fill="#fff"/>
        <rect id="Rectangle_216" data-name="Rectangle 216" width="1.203" height="1.203" transform="translate(14.437 8.422)" fill="#fff"/>
        <rect id="Rectangle_217" data-name="Rectangle 217" width="1.203" height="1.203" transform="translate(20.453 8.422)" fill="#fff"/>
        <rect id="Rectangle_218" data-name="Rectangle 218" width="2.406" height="1.203" transform="translate(16.844 8.422)" fill="#fff"/>
        <rect id="Rectangle_219" data-name="Rectangle 219" width="1.203" height="2.406" transform="translate(12.031 10.828)" fill="#fff"/>
        <rect id="Rectangle_220" data-name="Rectangle 220" width="1.203" height="2.406" transform="translate(14.437 10.828)" fill="#fff"/>
        <rect id="Rectangle_221" data-name="Rectangle 221" width="1.203" height="2.406" transform="translate(20.453 10.828)" fill="#fff"/>
        <rect id="Rectangle_222" data-name="Rectangle 222" width="2.406" height="2.406" transform="translate(16.844 10.828)" fill="#fff"/>
        <rect id="Rectangle_223" data-name="Rectangle 223" width="1.203" height="1.203" transform="translate(12.031 14.437)" fill="#fff"/>
        <rect id="Rectangle_224" data-name="Rectangle 224" width="1.203" height="1.203" transform="translate(14.437 14.437)" fill="#fff"/>
        <rect id="Rectangle_225" data-name="Rectangle 225" width="1.203" height="1.203" transform="translate(20.453 14.437)" fill="#fff"/>
        <rect id="Rectangle_226" data-name="Rectangle 226" width="2.406" height="1.203" transform="translate(16.844 14.437)" fill="#fff"/>
        <rect id="Rectangle_227" data-name="Rectangle 227" width="1.203" height="1.203" transform="translate(12.031 16.844)" fill="#fff"/>
        <rect id="Rectangle_228" data-name="Rectangle 228" width="1.203" height="1.203" transform="translate(14.437 16.844)" fill="#fff"/>
        <rect id="Rectangle_229" data-name="Rectangle 229" width="1.203" height="1.203" transform="translate(20.453 16.844)" fill="#fff"/>
        <rect id="Rectangle_230" data-name="Rectangle 230" width="2.406" height="1.203" transform="translate(16.844 16.844)" fill="#fff"/>
        <rect id="Rectangle_231" data-name="Rectangle 231" width="1.203" height="1.203" transform="translate(12.031 19.25)" fill="#fff"/>
        <rect id="Rectangle_232" data-name="Rectangle 232" width="1.203" height="1.203" transform="translate(14.437 19.25)" fill="#fff"/>
        <rect id="Rectangle_233" data-name="Rectangle 233" width="1.203" height="1.203" transform="translate(20.453 19.25)" fill="#fff"/>
        <rect id="Rectangle_234" data-name="Rectangle 234" width="2.406" height="1.203" transform="translate(16.844 19.25)" fill="#fff"/>
        <rect id="Rectangle_235" data-name="Rectangle 235" width="1.203" height="1.203" transform="translate(12.031 21.656)" fill="#fff"/>
        <rect id="Rectangle_236" data-name="Rectangle 236" width="1.203" height="1.203" transform="translate(14.437 21.656)" fill="#fff"/>
        <rect id="Rectangle_237" data-name="Rectangle 237" width="1.203" height="1.203" transform="translate(20.453 21.656)" fill="#fff"/>
        <rect id="Rectangle_238" data-name="Rectangle 238" width="2.406" height="1.203" transform="translate(16.844 21.656)" fill="#fff"/>
        <rect id="Rectangle_239" data-name="Rectangle 239" width="1.203" height="2.406" transform="translate(12.031 24.062)" fill="#fff"/>
        <rect id="Rectangle_240" data-name="Rectangle 240" width="1.203" height="2.406" transform="translate(14.437 24.062)" fill="#fff"/>
        <rect id="Rectangle_241" data-name="Rectangle 241" width="1.203" height="2.406" transform="translate(20.453 24.062)" fill="#fff"/>
        <rect id="Rectangle_242" data-name="Rectangle 242" width="2.406" height="2.406" transform="translate(16.844 24.062)" fill="#fff"/>
        <rect id="Rectangle_243" data-name="Rectangle 243" width="1.203" height="1.203" transform="translate(26.468 14.437)" fill="#fff"/>
        <rect id="Rectangle_244" data-name="Rectangle 244" width="1.203" height="1.203" transform="translate(26.468 16.844)" fill="#fff"/>
        <rect id="Rectangle_245" data-name="Rectangle 245" width="1.203" height="1.203" transform="translate(26.468 19.25)" fill="#fff"/>
        <rect id="Rectangle_246" data-name="Rectangle 246" width="1.203" height="2.406" transform="translate(26.468 21.656)" fill="#fff"/>
        <rect id="Rectangle_247" data-name="Rectangle 247" width="1.203" height="1.203" transform="translate(26.468 25.265)" fill="#fff"/>
        <rect id="Rectangle_248" data-name="Rectangle 248" width="1.203" height="1.203" transform="translate(26.468 27.671)" fill="#fff"/>
        <rect id="Rectangle_249" data-name="Rectangle 249" width="1.203" height="1.203" transform="translate(26.468 30.078)" fill="#fff"/>
      </g>
    </g>
  </g>
</svg>
