<svg xmlns="http://www.w3.org/2000/svg" width="415" height="925" viewBox="0 0 415 925">
  <g id="Group_104" data-name="Group 104" transform="translate(-2 -2290)">
    <circle id="Ellipse_6" data-name="Ellipse 6" cx="33" cy="33" r="33" transform="translate(176 2290)" fill="#cce28d"/>
    <text id="Step_1:_Choose_Your_car" data-name="Step 1: Choose Your  car" transform="translate(15 2386)" font-size="30" font-family="Montserrat" font-weight="600"><tspan x="12.355" y="29" xml:space="preserve">Step 1: Choose Your  car</tspan></text>
    <line id="Line_29" data-name="Line 29" y2="159" transform="translate(209 2459)" fill="none" stroke="#000" stroke-width="1" opacity="0.64"/>
    <circle id="Ellipse_9" data-name="Ellipse 9" cx="14.5" cy="14.5" r="14.5" transform="translate(195 2524)" fill="#2e3192"/>
    <g id="Group_47" data-name="Group 47" transform="translate(-399.083 397)">
      <line id="Line_31" data-name="Line 31" x2="7.968" y2="7.968" transform="translate(601.5 2138.5)" fill="none" stroke="#fff" stroke-width="3"/>
      <line id="Line_32" data-name="Line 32" x1="7.968" y2="7.968" transform="translate(607.697 2138.5)" fill="none" stroke="#fff" stroke-width="3"/>
    </g>
    <circle id="Ellipse_7" data-name="Ellipse 7" cx="33" cy="33" r="33" transform="translate(176 2629)" fill="#cde391"/>
    <g id="bx-tachometer" transform="translate(190.083 2645.312)">
      <path id="Path_34" data-name="Path 34" d="M18.917,4A16.936,16.936,0,0,0,2,20.917a16.731,16.731,0,0,0,1.778,7.52,1.694,1.694,0,0,0,1.514.939H32.54a1.7,1.7,0,0,0,1.516-.939,16.731,16.731,0,0,0,1.778-7.52A16.936,16.936,0,0,0,18.917,4ZM31.452,25.992H6.382a13.322,13.322,0,0,1-1-5.075,13.534,13.534,0,1,1,27.067,0,13.322,13.322,0,0,1-1,5.075Z" fill="#fff"/>
      <path id="Path_35" data-name="Path 35" d="M11.418,15.683a2.592,2.592,0,1,0,3.588,3.588l6.7-10.214a.058.058,0,0,0,0-.059.056.056,0,0,0-.076-.017l-10.214,6.7Z" transform="translate(5.704 3.439)" fill="#fff"/>
    </g>
    <text id="Step_2_:_Check_Availability_" data-name="Step 2 : Check Availability 
" transform="translate(2 2730)" font-size="30" font-family="Montserrat" font-weight="600"><tspan x="10.4" y="29">Step 2 : Check Availability </tspan><tspan x="207.5" y="59"></tspan></text>
    <line id="Line_33" data-name="Line 33" y2="159" transform="translate(209 2818)" fill="none" stroke="#000" stroke-width="1" opacity="0.64"/>
    <circle id="Ellipse_11" data-name="Ellipse 11" cx="14.5" cy="14.5" r="14.5" transform="translate(195 2883)" fill="#2e3192"/>
    <g id="Group_49" data-name="Group 49" transform="translate(-399.083 756)">
      <line id="Line_31-2" data-name="Line 31" x2="7.968" y2="7.968" transform="translate(601.5 2138.5)" fill="none" stroke="#fff" stroke-width="3"/>
      <line id="Line_32-2" data-name="Line 32" x1="7.968" y2="7.968" transform="translate(607.697 2138.5)" fill="none" stroke="#fff" stroke-width="3"/>
    </g>
    <circle id="Ellipse_8" data-name="Ellipse 8" cx="33" cy="33" r="33" transform="translate(176 3003)" fill="#cce28d"/>
    <path id="bx-dollar" d="M27.212,15.789h4.243c0-6.018-5.844-8.763-10.607-9.4V2H16.606V6.393C11.843,7.025,6,9.77,6,15.789c0,5.74,5.655,8.725,10.607,9.4V35.729c-3.072-.532-6.364-2.172-6.364-5.091H6c0,5.492,5.144,8.738,10.607,9.41v4.378h4.243V40.036c4.762-.632,10.607-3.379,10.607-9.4s-5.844-8.763-10.607-9.4V10.7C23.67,11.2,27.212,12.694,27.212,15.789Zm-16.971,0c0-3.1,3.543-4.584,6.364-5.091v10.18C13.7,20.341,10.242,18.752,10.242,15.789ZM27.212,30.638c0,3.1-3.543,4.584-6.364,5.091V25.547C23.67,26.054,27.212,27.543,27.212,30.638Z" transform="translate(190.273 3012.787)" fill="#fff"/>
    <text id="Step_3_:_Book_Your_Car_" data-name="Step 3 : Book Your Car 
" transform="translate(38 3098)" font-size="30" font-family="Montserrat" font-weight="600"><tspan x="1.52" y="29">Step 3 : Book Your Car </tspan><tspan x="171.5" y="59"></tspan></text>
    <g id="noun-cars-5022156" transform="translate(191.512 2310.312)">
      <path id="Path_41" data-name="Path 41" d="M14.333,32.2H11.005a1.25,1.25,0,0,0-1.249,1.249V34.79a1.25,1.25,0,0,0,1.249,1.249h3.327a1.25,1.25,0,0,0,1.249-1.249V33.449A1.25,1.25,0,0,0,14.333,32.2Zm0,2.59H11.005s0-1.343,0-1.341h3.327Z" transform="translate(-6.161 -19.387)" fill="#fff"/>
      <path id="Path_42" data-name="Path 42" d="M14.877,40.449H10.7a.625.625,0,1,0,0,1.249h4.174a.625.625,0,1,0,0-1.249Z" transform="translate(-6.282 -22.484)" fill="#fff"/>
      <path id="Path_43" data-name="Path 43" d="M49.494,32.2H46.167a1.251,1.251,0,0,0-1.249,1.249V34.79a1.251,1.251,0,0,0,1.249,1.249h3.327a1.251,1.251,0,0,0,1.249-1.249V33.449A1.251,1.251,0,0,0,49.494,32.2Zm0,2.59H46.167V33.449h3.327Z" transform="translate(-19.361 -19.387)" fill="#fff"/>
      <path id="Path_44" data-name="Path 44" d="M50.038,40.449H45.865a.625.625,0,1,0,0,1.249h4.173a.625.625,0,1,0,0-1.249Z" transform="translate(-19.482 -22.484)" fill="#fff"/>
      <path id="Path_45" data-name="Path 45" d="M34.163,35.721a1.866,1.866,0,0,0-1.824-1.448H23.556a1.866,1.866,0,0,0-1.825,1.448l-.482,2.063a1.884,1.884,0,0,0,1.825,2.3H32.82a1.885,1.885,0,0,0,1.824-2.3ZM33.309,38.6a.621.621,0,0,1-.489.236H23.074a.628.628,0,0,1-.608-.767l.482-2.063a.622.622,0,0,1,.608-.483h8.783a.622.622,0,0,1,.608.483l.482,2.064a.623.623,0,0,1-.119.53Z" transform="translate(-10.458 -20.166)" fill="#fff"/>
      <path id="Path_46" data-name="Path 46" d="M37.728,16.956H35.6a1.482,1.482,0,0,0-1.294.978l-1.5-2.71a6.872,6.872,0,0,0-6.007-3.538H16.186a6.873,6.873,0,0,0-6.008,3.538l-1.5,2.71a1.482,1.482,0,0,0-1.295-.978H5.249A1.25,1.25,0,0,0,4,18.205v1.339a1.25,1.25,0,0,0,1.249,1.249H6.23a2.824,2.824,0,0,0-1.139,2.163V30.88a2.482,2.482,0,0,0,1.275,2.175.6.6,0,0,0-.029.142v2.145a1.726,1.726,0,0,0,1.728,1.72h3.264a1.726,1.726,0,0,0,1.728-1.72V33.829c2.671.179,5.676.323,8.431.323s5.76-.145,8.431-.323v1.512a1.726,1.726,0,0,0,1.728,1.72h3.264a1.726,1.726,0,0,0,1.728-1.72V33.2a.6.6,0,0,0-.029-.142,2.482,2.482,0,0,0,1.275-2.175V22.956a2.822,2.822,0,0,0-1.139-2.163h.98a1.251,1.251,0,0,0,1.249-1.249V18.205A1.251,1.251,0,0,0,37.728,16.956ZM11.271,15.829a5.624,5.624,0,0,1,4.916-2.894H26.791a5.625,5.625,0,0,1,4.916,2.894l1.7,3.057a89.889,89.889,0,0,1-11.914.662,89.884,89.884,0,0,1-11.914-.662ZM5.249,19.544V18.205H7.38l.558.928-.423.411Zm6.559,15.8a.47.47,0,0,1-.479.471H8.065a.476.476,0,0,1-.479-.471V33.389c1.126.105,2.581.233,4.222.353Zm23.1.471H31.648a.47.47,0,0,1-.479-.471v-1.6c1.64-.12,3.1-.247,4.221-.353v1.952a.476.476,0,0,1-.479.471Zm1.726-4.933a1.241,1.241,0,0,1-1.126,1.243c-3.074.292-8.983.78-14.022.78s-10.949-.489-14.023-.78A1.241,1.241,0,0,1,6.34,30.88V22.956a1.255,1.255,0,0,1,.379-.9c.433-.43,1.674-1.621,2.083-2.025a83.608,83.608,0,0,0,12.687.761,83.6,83.6,0,0,0,12.686-.761c.421.4,1.65,1.61,2.083,2.024a1.256,1.256,0,0,1,.379.9Zm1.091-11.336H35.463l-.424-.412.558-.927h2.131Z" transform="translate(-4 -11.686)" fill="#fff"/>
    </g>
  </g>
</svg>
