<svg xmlns="http://www.w3.org/2000/svg" width="551" height="938" viewBox="0 0 551 938">
  <g id="Group_109" data-name="Group 109" transform="translate(66 -2290)">
    <circle id="Ellipse_6" data-name="Ellipse 6" cx="33" cy="33" r="33" transform="translate(176 2290)" fill="#cce28d"/>
    <text id="Step_1_:_Select_the_Property_" data-name="Step 1 : Select the Property 
" transform="translate(-28 2374)" font-size="30" font-family="Montserrat" font-weight="600"><tspan x="30.675" y="29">Step 1 : Select the Property </tspan><tspan x="237" y="59"></tspan></text>
    <line id="Line_29" data-name="Line 29" y2="159" transform="translate(209 2459)" fill="none" stroke="#000" stroke-width="1" opacity="0.64"/>
    <circle id="Ellipse_9" data-name="Ellipse 9" cx="14.5" cy="14.5" r="14.5" transform="translate(195 2524)" fill="#2e3192"/>
    <g id="Group_47" data-name="Group 47" transform="translate(-399.083 397)">
      <line id="Line_31" data-name="Line 31" x2="7.968" y2="7.968" transform="translate(601.5 2138.5)" fill="none" stroke="#fff" stroke-width="3"/>
      <line id="Line_32" data-name="Line 32" x1="7.968" y2="7.968" transform="translate(607.697 2138.5)" fill="none" stroke="#fff" stroke-width="3"/>
    </g>
    <circle id="Ellipse_7" data-name="Ellipse 7" cx="33" cy="33" r="33" transform="translate(176 2629)" fill="#cde391"/>
    <g id="bx-tachometer" transform="translate(190.083 2645.312)">
      <path id="Path_34" data-name="Path 34" d="M18.917,4A16.936,16.936,0,0,0,2,20.917a16.731,16.731,0,0,0,1.778,7.52,1.694,1.694,0,0,0,1.514.939H32.54a1.7,1.7,0,0,0,1.516-.939,16.731,16.731,0,0,0,1.778-7.52A16.936,16.936,0,0,0,18.917,4ZM31.452,25.992H6.382a13.322,13.322,0,0,1-1-5.075,13.534,13.534,0,1,1,27.067,0,13.322,13.322,0,0,1-1,5.075Z" fill="#fff"/>
      <path id="Path_35" data-name="Path 35" d="M11.418,15.683a2.592,2.592,0,1,0,3.588,3.588l6.7-10.214a.058.058,0,0,0,0-.059.056.056,0,0,0-.076-.017l-10.214,6.7Z" transform="translate(5.704 3.439)" fill="#fff"/>
    </g>
    <text id="Step_2_:_Check_Availability_" data-name="Step 2 : Check Availability 
" transform="translate(-23 2730)" font-size="30" font-family="Montserrat" font-weight="600"><tspan x="34.9" y="29">Step 2 : Check Availability </tspan><tspan x="232" y="59"></tspan></text>
    <line id="Line_33" data-name="Line 33" y2="159" transform="translate(209 2818)" fill="none" stroke="#000" stroke-width="1" opacity="0.64"/>
    <circle id="Ellipse_11" data-name="Ellipse 11" cx="14.5" cy="14.5" r="14.5" transform="translate(195 2883)" fill="#2e3192"/>
    <g id="Group_49" data-name="Group 49" transform="translate(-399.083 756)">
      <line id="Line_31-2" data-name="Line 31" x2="7.968" y2="7.968" transform="translate(601.5 2138.5)" fill="none" stroke="#fff" stroke-width="3"/>
      <line id="Line_32-2" data-name="Line 32" x1="7.968" y2="7.968" transform="translate(607.697 2138.5)" fill="none" stroke="#fff" stroke-width="3"/>
    </g>
    <circle id="Ellipse_8" data-name="Ellipse 8" cx="33" cy="33" r="33" transform="translate(176 3003)" fill="#cce28d"/>
    <path id="bx-dollar" d="M27.212,15.789h4.243c0-6.018-5.844-8.763-10.607-9.4V2H16.606V6.393C11.843,7.025,6,9.77,6,15.789c0,5.74,5.655,8.725,10.607,9.4V35.729c-3.072-.532-6.364-2.172-6.364-5.091H6c0,5.492,5.144,8.738,10.607,9.41v4.378h4.243V40.036c4.762-.632,10.607-3.379,10.607-9.4s-5.844-8.763-10.607-9.4V10.7C23.67,11.2,27.212,12.694,27.212,15.789Zm-16.971,0c0-3.1,3.543-4.584,6.364-5.091v10.18C13.7,20.341,10.242,18.752,10.242,15.789ZM27.212,30.638c0,3.1-3.543,4.584-6.364,5.091V25.547C23.67,26.054,27.212,27.543,27.212,30.638Z" transform="translate(190.273 3012.787)" fill="#fff"/>
    <text id="Step_3_:_Contact_us_for_more_info" data-name="Step 3 : Contact us for more info" transform="translate(-66 3111)" font-size="30" font-family="Montserrat" font-weight="600"><tspan x="27.775" y="29">Step 3 : Contact us for more info</tspan></text>
    <g id="noun-building-1741291" transform="translate(191.818 2304.634)">
      <g id="Group_61" data-name="Group 61">
        <path id="Path_47" data-name="Path 47" d="M38.888,39.048V14.954h-7.5V7.45H29.409V3.5H18.744V7.45H16.769v13.4A4.417,4.417,0,0,0,10.7,26.291a4.408,4.408,0,0,0,3.7,7.96v4.8H6.5v1.185H40.863V39.048ZM37.7,16.139V39.048h-6.32V16.139ZM27.829,39.047h-3.16V33.123h3.16Zm-4.345,0h-3.16V33.123h3.16ZM19.929,4.685h8.294V7.45H19.929Zm-1.975,3.95H30.2V39.047H29.014V31.938H19.139v7.109H17.954ZM12.959,33.316a3.231,3.231,0,0,1-1.264-6.2l.585-.249-.289-.566a3.191,3.191,0,0,1-.352-1.467,3.223,3.223,0,0,1,5.129-2.606V32.8a3.111,3.111,0,0,1-.465.037,3.255,3.255,0,0,1-.72-.09V24.829H14.4v5.505L12.66,28.652l-.824.852L14.4,31.982v.993A3.213,3.213,0,0,1,12.959,33.316Zm2.625.641a4.378,4.378,0,0,0,.72.066,4.115,4.115,0,0,0,.465-.03v5.054H15.584Z" transform="translate(-6.5 -3.5)" fill="#fff"/>
        <rect id="Rectangle_211" data-name="Rectangle 211" width="1.267" height="1.267" transform="translate(12.666 6.333)" fill="#fff"/>
        <rect id="Rectangle_212" data-name="Rectangle 212" width="1.267" height="1.267" transform="translate(15.2 6.333)" fill="#fff"/>
        <rect id="Rectangle_213" data-name="Rectangle 213" width="1.267" height="1.267" transform="translate(21.533 6.333)" fill="#fff"/>
        <rect id="Rectangle_214" data-name="Rectangle 214" width="2.533" height="1.267" transform="translate(17.733 6.333)" fill="#fff"/>
        <rect id="Rectangle_215" data-name="Rectangle 215" width="1.267" height="1.267" transform="translate(12.666 8.867)" fill="#fff"/>
        <rect id="Rectangle_216" data-name="Rectangle 216" width="1.267" height="1.267" transform="translate(15.2 8.867)" fill="#fff"/>
        <rect id="Rectangle_217" data-name="Rectangle 217" width="1.267" height="1.267" transform="translate(21.533 8.867)" fill="#fff"/>
        <rect id="Rectangle_218" data-name="Rectangle 218" width="2.533" height="1.267" transform="translate(17.733 8.867)" fill="#fff"/>
        <rect id="Rectangle_219" data-name="Rectangle 219" width="1.267" height="2.533" transform="translate(12.666 11.4)" fill="#fff"/>
        <rect id="Rectangle_220" data-name="Rectangle 220" width="1.267" height="2.533" transform="translate(15.2 11.4)" fill="#fff"/>
        <rect id="Rectangle_221" data-name="Rectangle 221" width="1.267" height="2.533" transform="translate(21.533 11.4)" fill="#fff"/>
        <rect id="Rectangle_222" data-name="Rectangle 222" width="2.533" height="2.533" transform="translate(17.733 11.4)" fill="#fff"/>
        <rect id="Rectangle_223" data-name="Rectangle 223" width="1.267" height="1.267" transform="translate(12.666 15.2)" fill="#fff"/>
        <rect id="Rectangle_224" data-name="Rectangle 224" width="1.267" height="1.267" transform="translate(15.2 15.2)" fill="#fff"/>
        <rect id="Rectangle_225" data-name="Rectangle 225" width="1.267" height="1.267" transform="translate(21.533 15.2)" fill="#fff"/>
        <rect id="Rectangle_226" data-name="Rectangle 226" width="2.533" height="1.267" transform="translate(17.733 15.2)" fill="#fff"/>
        <rect id="Rectangle_227" data-name="Rectangle 227" width="1.267" height="1.267" transform="translate(12.666 17.733)" fill="#fff"/>
        <rect id="Rectangle_228" data-name="Rectangle 228" width="1.267" height="1.267" transform="translate(15.2 17.733)" fill="#fff"/>
        <rect id="Rectangle_229" data-name="Rectangle 229" width="1.267" height="1.267" transform="translate(21.533 17.733)" fill="#fff"/>
        <rect id="Rectangle_230" data-name="Rectangle 230" width="2.533" height="1.267" transform="translate(17.733 17.733)" fill="#fff"/>
        <rect id="Rectangle_231" data-name="Rectangle 231" width="1.267" height="1.267" transform="translate(12.666 20.266)" fill="#fff"/>
        <rect id="Rectangle_232" data-name="Rectangle 232" width="1.267" height="1.267" transform="translate(15.2 20.266)" fill="#fff"/>
        <rect id="Rectangle_233" data-name="Rectangle 233" width="1.267" height="1.267" transform="translate(21.533 20.266)" fill="#fff"/>
        <rect id="Rectangle_234" data-name="Rectangle 234" width="2.533" height="1.267" transform="translate(17.733 20.266)" fill="#fff"/>
        <rect id="Rectangle_235" data-name="Rectangle 235" width="1.267" height="1.267" transform="translate(12.666 22.8)" fill="#fff"/>
        <rect id="Rectangle_236" data-name="Rectangle 236" width="1.267" height="1.267" transform="translate(15.2 22.8)" fill="#fff"/>
        <rect id="Rectangle_237" data-name="Rectangle 237" width="1.267" height="1.267" transform="translate(21.533 22.8)" fill="#fff"/>
        <rect id="Rectangle_238" data-name="Rectangle 238" width="2.533" height="1.267" transform="translate(17.733 22.8)" fill="#fff"/>
        <rect id="Rectangle_239" data-name="Rectangle 239" width="1.267" height="2.533" transform="translate(12.666 25.333)" fill="#fff"/>
        <rect id="Rectangle_240" data-name="Rectangle 240" width="1.267" height="2.533" transform="translate(15.2 25.333)" fill="#fff"/>
        <rect id="Rectangle_241" data-name="Rectangle 241" width="1.267" height="2.533" transform="translate(21.533 25.333)" fill="#fff"/>
        <rect id="Rectangle_242" data-name="Rectangle 242" width="2.533" height="2.533" transform="translate(17.733 25.333)" fill="#fff"/>
        <rect id="Rectangle_243" data-name="Rectangle 243" width="1.267" height="1.267" transform="translate(27.866 15.2)" fill="#fff"/>
        <rect id="Rectangle_244" data-name="Rectangle 244" width="1.267" height="1.267" transform="translate(27.866 17.733)" fill="#fff"/>
        <rect id="Rectangle_245" data-name="Rectangle 245" width="1.267" height="1.267" transform="translate(27.866 20.266)" fill="#fff"/>
        <rect id="Rectangle_246" data-name="Rectangle 246" width="1.267" height="2.533" transform="translate(27.866 22.8)" fill="#fff"/>
        <rect id="Rectangle_247" data-name="Rectangle 247" width="1.267" height="1.267" transform="translate(27.866 26.6)" fill="#fff"/>
        <rect id="Rectangle_248" data-name="Rectangle 248" width="1.267" height="1.267" transform="translate(27.866 29.133)" fill="#fff"/>
        <rect id="Rectangle_249" data-name="Rectangle 249" width="1.267" height="1.267" transform="translate(27.866 31.666)" fill="#fff"/>
      </g>
    </g>
  </g>
</svg>
