<svg xmlns="http://www.w3.org/2000/svg" width="397" height="970" viewBox="0 0 397 970">
  <g id="Group_108" data-name="Group 108" transform="translate(-30 -2289.667)">
    <ellipse id="Ellipse_6" data-name="Ellipse 6" cx="34" cy="34.5" rx="34" ry="34.5" transform="translate(195 2289.667)" fill="#cce28d"/>
    <text id="Step_1_:_Select_the_Property_" data-name="Step 1 : Select the Property 
" transform="translate(37 2376.667)" font-size="30" font-family="Montserrat" font-weight="600"><tspan x="56.83" y="29">Step 1 : Select the </tspan><tspan x="123.985" y="59">Property </tspan><tspan x="191.5" y="89"></tspan></text>
    <line id="Line_29" data-name="Line 29" y2="164" transform="translate(229 2464.667)" fill="none" stroke="#000" stroke-width="1" opacity="0.64"/>
    <circle id="Ellipse_9" data-name="Ellipse 9" cx="15" cy="15" r="15" transform="translate(215 2531.667)" fill="#2e3192"/>
    <g id="Group_47" data-name="Group 47" transform="translate(221.957 2543.788)">
      <line id="Line_31" data-name="Line 31" x2="8.237" y2="8.237" fill="none" stroke="#fff" stroke-width="3"/>
      <line id="Line_32" data-name="Line 32" x1="8.237" y2="8.237" transform="translate(6.406)" fill="none" stroke="#fff" stroke-width="3"/>
    </g>
    <circle id="Ellipse_7" data-name="Ellipse 7" cx="34" cy="34" r="34" transform="translate(195 2640.667)" fill="#cde391"/>
    <g id="bx-tachometer" transform="translate(211.234 2661.443)">
      <path id="Path_34" data-name="Path 34" d="M19.488,4A17.508,17.508,0,0,0,2,21.488a17.3,17.3,0,0,0,1.838,7.773,1.751,1.751,0,0,0,1.565.971H33.571a1.753,1.753,0,0,0,1.567-.971,17.3,17.3,0,0,0,1.838-7.773A17.508,17.508,0,0,0,19.488,4ZM32.447,26.735H6.529A13.772,13.772,0,0,1,5.5,21.488a13.99,13.99,0,0,1,27.981,0,13.772,13.772,0,0,1-1.032,5.246Z" transform="translate(-2 -4)" fill="#fff"/>
      <path id="Path_35" data-name="Path 35" d="M11.458,15.909a2.679,2.679,0,1,0,3.709,3.709L22.1,9.059A.059.059,0,0,0,22.1,9a.058.058,0,0,0-.079-.017L11.458,15.909Z" transform="translate(4.175 -0.277)" fill="#fff"/>
    </g>
    <text id="Step_2_:_Check_Availability_" data-name="Step 2 : Check Availability 
" transform="translate(30 2744.667)" font-size="30" font-family="Montserrat" font-weight="600"><tspan x="1.4" y="29">Step 2 : Check Availability </tspan><tspan x="198.5" y="59"></tspan></text>
    <line id="Line_33" data-name="Line 33" y2="165" transform="translate(229 2835.667)" fill="none" stroke="#000" stroke-width="1" opacity="0.64"/>
    <circle id="Ellipse_11" data-name="Ellipse 11" cx="15" cy="15" r="15" transform="translate(215 2902.667)" fill="#2e3192"/>
    <g id="Group_49" data-name="Group 49" transform="translate(221.957 2914.908)">
      <line id="Line_31-2" data-name="Line 31" x2="8.237" y2="8.237" fill="none" stroke="#fff" stroke-width="3"/>
      <line id="Line_32-2" data-name="Line 32" x1="8.237" y2="8.237" transform="translate(6.406)" fill="none" stroke="#fff" stroke-width="3"/>
    </g>
    <ellipse id="Ellipse_8" data-name="Ellipse 8" cx="34" cy="34.5" rx="34" ry="34.5" transform="translate(195 3026.667)" fill="#cce28d"/>
    <path id="bx-dollar" d="M27.929,16.254h4.386c0-6.221-6.042-9.059-10.965-9.713V2H16.964V6.542C12.041,7.2,6,10.033,6,16.254c0,5.934,5.846,9.02,10.965,9.715v10.9c-3.175-.55-6.579-2.246-6.579-5.263H6c0,5.678,5.318,9.033,10.965,9.728v4.526H21.35V41.32c4.923-.653,10.965-3.493,10.965-9.715s-6.042-9.059-10.965-9.713v-10.9C24.266,11.515,27.929,13.055,27.929,16.254Zm-17.544,0c0-3.2,3.662-4.739,6.579-5.263V21.515C13.957,20.96,10.385,19.318,10.385,16.254ZM27.929,31.6c0,3.2-3.662,4.739-6.579,5.263V26.342C24.266,26.866,27.929,28.405,27.929,31.6Z" transform="translate(209.566 3037.256)" fill="#fff"/>
    <text id="Step_3_:_Contact_us_for_more_info" data-name="Step 3 : Contact us for more info" transform="translate(75 3138.667)" font-size="30" font-family="Montserrat" font-weight="600"><tspan x="32.33" y="29">Step 3 : Contact </tspan><tspan x="31.085" y="59">us for more info</tspan></text>
    <g id="noun-building-1741291" transform="translate(210.961 2305.128)">
      <g id="Group_61" data-name="Group 61">
        <path id="Path_47" data-name="Path 47" d="M39.982,40.248V15.341H32.224V7.583H30.182V3.5H19.158V7.583H17.116v13.85a4.566,4.566,0,0,0-6.272,5.627,4.557,4.557,0,0,0,3.822,8.228v4.959H6.5v1.225H42.023V40.248ZM38.757,16.566V40.248H32.224V16.566ZM28.549,40.247H25.283V34.123h3.266Zm-4.492,0H20.791V34.123h3.266ZM20.383,4.725h8.574V7.583H20.383ZM18.341,8.808H31V40.247H29.774V32.9H19.566v7.349H18.341ZM13.177,34.323a3.34,3.34,0,0,1-1.306-6.413l.6-.257-.3-.585a3.3,3.3,0,0,1-.363-1.517,3.332,3.332,0,0,1,5.3-2.694V33.79a3.216,3.216,0,0,1-.481.038,3.365,3.365,0,0,1-.744-.094V25.549H14.666V31.24l-1.8-1.739-.852.88,2.649,2.563V33.97A3.321,3.321,0,0,1,13.177,34.323Zm2.714.663a4.526,4.526,0,0,0,.744.069,4.254,4.254,0,0,0,.481-.031v5.225H15.891Z" transform="translate(-6.5 -3.5)" fill="#fff"/>
        <rect id="Rectangle_211" data-name="Rectangle 211" width="1.309" height="1.309" transform="translate(13.094 6.547)" fill="#fff"/>
        <rect id="Rectangle_212" data-name="Rectangle 212" width="1.309" height="1.309" transform="translate(15.713 6.547)" fill="#fff"/>
        <rect id="Rectangle_213" data-name="Rectangle 213" width="1.309" height="1.309" transform="translate(22.26 6.547)" fill="#fff"/>
        <rect id="Rectangle_214" data-name="Rectangle 214" width="2.619" height="1.309" transform="translate(18.332 6.547)" fill="#fff"/>
        <rect id="Rectangle_215" data-name="Rectangle 215" width="1.309" height="1.309" transform="translate(13.094 9.166)" fill="#fff"/>
        <rect id="Rectangle_216" data-name="Rectangle 216" width="1.309" height="1.309" transform="translate(15.713 9.166)" fill="#fff"/>
        <rect id="Rectangle_217" data-name="Rectangle 217" width="1.309" height="1.309" transform="translate(22.26 9.166)" fill="#fff"/>
        <rect id="Rectangle_218" data-name="Rectangle 218" width="2.619" height="1.309" transform="translate(18.332 9.166)" fill="#fff"/>
        <rect id="Rectangle_219" data-name="Rectangle 219" width="1.309" height="2.619" transform="translate(13.094 11.785)" fill="#fff"/>
        <rect id="Rectangle_220" data-name="Rectangle 220" width="1.309" height="2.619" transform="translate(15.713 11.785)" fill="#fff"/>
        <rect id="Rectangle_221" data-name="Rectangle 221" width="1.309" height="2.619" transform="translate(22.26 11.785)" fill="#fff"/>
        <rect id="Rectangle_222" data-name="Rectangle 222" width="2.619" height="2.619" transform="translate(18.332 11.785)" fill="#fff"/>
        <rect id="Rectangle_223" data-name="Rectangle 223" width="1.309" height="1.309" transform="translate(13.094 15.713)" fill="#fff"/>
        <rect id="Rectangle_224" data-name="Rectangle 224" width="1.309" height="1.309" transform="translate(15.713 15.713)" fill="#fff"/>
        <rect id="Rectangle_225" data-name="Rectangle 225" width="1.309" height="1.309" transform="translate(22.26 15.713)" fill="#fff"/>
        <rect id="Rectangle_226" data-name="Rectangle 226" width="2.619" height="1.309" transform="translate(18.332 15.713)" fill="#fff"/>
        <rect id="Rectangle_227" data-name="Rectangle 227" width="1.309" height="1.309" transform="translate(13.094 18.332)" fill="#fff"/>
        <rect id="Rectangle_228" data-name="Rectangle 228" width="1.309" height="1.309" transform="translate(15.713 18.332)" fill="#fff"/>
        <rect id="Rectangle_229" data-name="Rectangle 229" width="1.309" height="1.309" transform="translate(22.26 18.332)" fill="#fff"/>
        <rect id="Rectangle_230" data-name="Rectangle 230" width="2.619" height="1.309" transform="translate(18.332 18.332)" fill="#fff"/>
        <rect id="Rectangle_231" data-name="Rectangle 231" width="1.309" height="1.309" transform="translate(13.094 20.951)" fill="#fff"/>
        <rect id="Rectangle_232" data-name="Rectangle 232" width="1.309" height="1.309" transform="translate(15.713 20.951)" fill="#fff"/>
        <rect id="Rectangle_233" data-name="Rectangle 233" width="1.309" height="1.309" transform="translate(22.26 20.951)" fill="#fff"/>
        <rect id="Rectangle_234" data-name="Rectangle 234" width="2.619" height="1.309" transform="translate(18.332 20.951)" fill="#fff"/>
        <rect id="Rectangle_235" data-name="Rectangle 235" width="1.309" height="1.309" transform="translate(13.094 23.569)" fill="#fff"/>
        <rect id="Rectangle_236" data-name="Rectangle 236" width="1.309" height="1.309" transform="translate(15.713 23.569)" fill="#fff"/>
        <rect id="Rectangle_237" data-name="Rectangle 237" width="1.309" height="1.309" transform="translate(22.26 23.569)" fill="#fff"/>
        <rect id="Rectangle_238" data-name="Rectangle 238" width="2.619" height="1.309" transform="translate(18.332 23.569)" fill="#fff"/>
        <rect id="Rectangle_239" data-name="Rectangle 239" width="1.309" height="2.619" transform="translate(13.094 26.188)" fill="#fff"/>
        <rect id="Rectangle_240" data-name="Rectangle 240" width="1.309" height="2.619" transform="translate(15.713 26.188)" fill="#fff"/>
        <rect id="Rectangle_241" data-name="Rectangle 241" width="1.309" height="2.619" transform="translate(22.26 26.188)" fill="#fff"/>
        <rect id="Rectangle_242" data-name="Rectangle 242" width="2.619" height="2.619" transform="translate(18.332 26.188)" fill="#fff"/>
        <rect id="Rectangle_243" data-name="Rectangle 243" width="1.309" height="1.309" transform="translate(28.807 15.713)" fill="#fff"/>
        <rect id="Rectangle_244" data-name="Rectangle 244" width="1.309" height="1.309" transform="translate(28.807 18.332)" fill="#fff"/>
        <rect id="Rectangle_245" data-name="Rectangle 245" width="1.309" height="1.309" transform="translate(28.807 20.951)" fill="#fff"/>
        <rect id="Rectangle_246" data-name="Rectangle 246" width="1.309" height="2.619" transform="translate(28.807 23.569)" fill="#fff"/>
        <rect id="Rectangle_247" data-name="Rectangle 247" width="1.309" height="1.309" transform="translate(28.807 27.498)" fill="#fff"/>
        <rect id="Rectangle_248" data-name="Rectangle 248" width="1.309" height="1.309" transform="translate(28.807 30.116)" fill="#fff"/>
        <rect id="Rectangle_249" data-name="Rectangle 249" width="1.309" height="1.309" transform="translate(28.807 32.735)" fill="#fff"/>
      </g>
    </g>
  </g>
</svg>
