<svg xmlns="http://www.w3.org/2000/svg" width="358" height="938" viewBox="0 0 358 938">
  <g id="Group_107" data-name="Group 107" transform="translate(-30 -2290)">
    <circle id="Ellipse_6" data-name="Ellipse 6" cx="33" cy="33" r="33" transform="translate(176 2290)" fill="#cce28d"/>
    <text id="Step_1_:_Explore_the_Villa_" data-name="Step 1 : Explore the Villa 
" transform="translate(37 2385)" font-size="30" font-family="Montserrat" font-weight="600"><tspan x="26.665" y="29">Step 1 : Explore the </tspan><tspan x="139.105" y="59">Villa </tspan><tspan x="172" y="89"></tspan></text>
    <line id="Line_29" data-name="Line 29" y2="159" transform="translate(209 2459)" fill="none" stroke="#000" stroke-width="1" opacity="0.64"/>
    <circle id="Ellipse_9" data-name="Ellipse 9" cx="14.5" cy="14.5" r="14.5" transform="translate(195 2524)" fill="#2e3192"/>
    <g id="Group_47" data-name="Group 47" transform="translate(-399.083 397)">
      <line id="Line_31" data-name="Line 31" x2="7.968" y2="7.968" transform="translate(601.5 2138.5)" fill="none" stroke="#fff" stroke-width="3"/>
      <line id="Line_32" data-name="Line 32" x1="7.968" y2="7.968" transform="translate(607.697 2138.5)" fill="none" stroke="#fff" stroke-width="3"/>
    </g>
    <circle id="Ellipse_7" data-name="Ellipse 7" cx="33" cy="33" r="33" transform="translate(176 2629)" fill="#cde391"/>
    <g id="bx-tachometer" transform="translate(190.083 2645.312)">
      <path id="Path_34" data-name="Path 34" d="M18.917,4A16.936,16.936,0,0,0,2,20.917a16.731,16.731,0,0,0,1.778,7.52,1.694,1.694,0,0,0,1.514.939H32.54a1.7,1.7,0,0,0,1.516-.939,16.731,16.731,0,0,0,1.778-7.52A16.936,16.936,0,0,0,18.917,4ZM31.452,25.992H6.382a13.322,13.322,0,0,1-1-5.075,13.534,13.534,0,1,1,27.067,0,13.322,13.322,0,0,1-1,5.075Z" fill="#fff"/>
      <path id="Path_35" data-name="Path 35" d="M11.418,15.683a2.592,2.592,0,1,0,3.588,3.588l6.7-10.214a.058.058,0,0,0,0-.059.056.056,0,0,0-.076-.017l-10.214,6.7Z" transform="translate(5.704 3.439)" fill="#fff"/>
    </g>
    <text id="Step_2_:_Check_Availability_" data-name="Step 2 : Check Availability 
" transform="translate(30 2730)" font-size="30" font-family="Montserrat" font-weight="600"><tspan x="70.34" y="29">Step 2 : Check </tspan><tspan x="94.7" y="59">Availability </tspan><tspan x="179" y="89"></tspan></text>
    <line id="Line_33" data-name="Line 33" y2="159" transform="translate(209 2818)" fill="none" stroke="#000" stroke-width="1" opacity="0.64"/>
    <circle id="Ellipse_11" data-name="Ellipse 11" cx="14.5" cy="14.5" r="14.5" transform="translate(195 2883)" fill="#2e3192"/>
    <g id="Group_49" data-name="Group 49" transform="translate(-399.083 756)">
      <line id="Line_31-2" data-name="Line 31" x2="7.968" y2="7.968" transform="translate(601.5 2138.5)" fill="none" stroke="#fff" stroke-width="3"/>
      <line id="Line_32-2" data-name="Line 32" x1="7.968" y2="7.968" transform="translate(607.697 2138.5)" fill="none" stroke="#fff" stroke-width="3"/>
    </g>
    <circle id="Ellipse_8" data-name="Ellipse 8" cx="33" cy="33" r="33" transform="translate(176 3003)" fill="#cce28d"/>
    <path id="bx-dollar" d="M27.212,15.789h4.243c0-6.018-5.844-8.763-10.607-9.4V2H16.606V6.393C11.843,7.025,6,9.77,6,15.789c0,5.74,5.655,8.725,10.607,9.4V35.729c-3.072-.532-6.364-2.172-6.364-5.091H6c0,5.492,5.144,8.738,10.607,9.41v4.378h4.243V40.036c4.762-.632,10.607-3.379,10.607-9.4s-5.844-8.763-10.607-9.4V10.7C23.67,11.2,27.212,12.694,27.212,15.789Zm-16.971,0c0-3.1,3.543-4.584,6.364-5.091v10.18C13.7,20.341,10.242,18.752,10.242,15.789ZM27.212,30.638c0,3.1-3.543,4.584-6.364,5.091V25.547C23.67,26.054,27.212,27.543,27.212,30.638Z" transform="translate(190.273 3012.787)" fill="#fff"/>
    <text id="Step_3_:_Make_a_Reservation_" data-name="Step 3 : Make a Reservation 
" transform="translate(74 3111)" font-size="30" font-family="Montserrat" font-weight="600"><tspan x="20.33" y="29">Step 3 : Make a </tspan><tspan x="43.46" y="59">Reservation </tspan><tspan x="135.5" y="89"></tspan></text>
    <g id="noun-vacation-2527534" transform="translate(193.4 2306.548)">
      <g id="Group_62" data-name="Group 62" transform="translate(0)">
        <path id="Path_48" data-name="Path 48" d="M26.339,7.5A14.522,14.522,0,0,0,11.82,21.979a.592.592,0,1,0,1.184,0,2.88,2.88,0,0,1,5.76,0,.592.592,0,1,0,1.184,0,2.084,2.084,0,0,1,.039-.513h0a2.884,2.884,0,0,1,5.721.513V35.354H22a3.334,3.334,0,0,0,.631-2.446,2.434,2.434,0,0,0-1.3-1.7.585.585,0,0,0-.276-.039l-7.338.237L11.82,28.134a1.184,1.184,0,0,0-2.052,1.184l4.5,7.772a1.177,1.177,0,0,0,1.026.592h2.959l-1.7,1.736a.572.572,0,0,0,0,.829.565.565,0,0,0,.395.158.634.634,0,0,0,.434-.2l2.486-2.564H33.283l2.486,2.564a.634.634,0,0,0,.434.2.457.457,0,0,0,.395-.158.572.572,0,0,0,0-.829l-1.7-1.736h2.88a1.184,1.184,0,0,0,0-2.367H26.931V21.979a2.884,2.884,0,0,1,5.721-.513h0a2.249,2.249,0,0,1,.039.513.592.592,0,1,0,1.184,0,2.88,2.88,0,0,1,5.76,0,.592.592,0,1,0,1.184,0A14.463,14.463,0,0,0,26.339,7.5ZM14.424,32.631l6.549-.237a1.273,1.273,0,0,1,.552.789,3.039,3.039,0,0,1-.947,2.209H16.042Zm1.46-14.716a3.885,3.885,0,0,0-2.486.868A13.322,13.322,0,0,1,24.6,8.8c-4.379,2.209-5.444,7.457-5.681,10.455A4.049,4.049,0,0,0,15.884,17.916Zm6.983,0a4.088,4.088,0,0,0-2.762,1.065c.276-2.92,1.381-7.772,5.642-9.429v9.587A4.093,4.093,0,0,0,22.867,17.916Zm6.944,0a4.023,4.023,0,0,0-2.88,1.223V9.552c4.261,1.7,5.366,6.51,5.642,9.469A4.048,4.048,0,0,0,29.811,17.916Zm6.983,0a4.027,4.027,0,0,0-3,1.341c-.237-3-1.3-8.246-5.681-10.455a13.37,13.37,0,0,1,11.2,9.982A4.25,4.25,0,0,0,36.794,17.916Z" transform="translate(-9.618 -7.5)" fill="#fff"/>
      </g>
    </g>
  </g>
</svg>
