<svg id="noun-vacation-2527534" xmlns="http://www.w3.org/2000/svg" width="17.543" height="18.501" viewBox="0 0 17.543 18.501">
  <g id="Group_62" data-name="Group 62" transform="translate(0)">
    <path id="Path_48" data-name="Path 48" d="M19.02,7.5a8.166,8.166,0,0,0-8.163,8.141.333.333,0,1,0,.665,0,1.619,1.619,0,0,1,3.239,0,.333.333,0,1,0,.665,0,1.172,1.172,0,0,1,.022-.288h0a1.621,1.621,0,0,1,3.217.288v7.52H16.58a1.874,1.874,0,0,0,.355-1.375,1.369,1.369,0,0,0-.732-.954.329.329,0,0,0-.155-.022l-4.126.133L10.856,19.1a.666.666,0,0,0-1.154.665l2.529,4.37a.662.662,0,0,0,.577.333h1.664l-.954.976a.322.322,0,0,0,0,.466A.318.318,0,0,0,13.74,26a.356.356,0,0,0,.244-.111l1.4-1.442h7.542l1.4,1.442a.356.356,0,0,0,.244.111.257.257,0,0,0,.222-.089.322.322,0,0,0,0-.466l-.954-.976h1.619a.665.665,0,0,0,0-1.331h-6.1v-7.5a1.621,1.621,0,0,1,3.217-.288h0a1.265,1.265,0,0,1,.022.288.333.333,0,1,0,.665,0,1.619,1.619,0,0,1,3.239,0,.333.333,0,1,0,.665,0A8.132,8.132,0,0,0,19.02,7.5Zm-6.7,14.131L16,21.5a.716.716,0,0,1,.311.444,1.709,1.709,0,0,1-.532,1.242H13.23Zm.821-8.274a2.184,2.184,0,0,0-1.4.488,7.491,7.491,0,0,1,6.3-5.612c-2.462,1.242-3.061,4.193-3.194,5.879A2.277,2.277,0,0,0,13.141,13.356Zm3.926,0a2.3,2.3,0,0,0-1.553.6c.155-1.642.776-4.37,3.172-5.3v5.39A2.3,2.3,0,0,0,17.068,13.356Zm3.9,0a2.262,2.262,0,0,0-1.619.688V8.654c2.4.954,3.017,3.66,3.172,5.324A2.276,2.276,0,0,0,20.972,13.356Zm3.926,0a2.264,2.264,0,0,0-1.686.754c-.133-1.686-.732-4.636-3.194-5.879a7.517,7.517,0,0,1,6.3,5.612A2.389,2.389,0,0,0,24.9,13.356Z" transform="translate(-9.618 -7.5)"/>
  </g>
</svg>
