<svg xmlns="http://www.w3.org/2000/svg" width="173.741" height="173.707" viewBox="0 0 173.741 173.707">
  <g id="noun-racket-2086705" transform="translate(-9.191)">
    <g id="Layer_4" data-name="Layer 4" transform="translate(9.192 0)">
      <path id="Path_139" data-name="Path 139" d="M173.225,157.057l-13.8-13.8a11.875,11.875,0,0,0-10.912-3.209L95.234,86.77C107.687,66.357,91.383,28.293,75.977,13.4a44.933,44.933,0,0,0-62.264,64.19A89.352,89.352,0,0,0,68.339,99.543a36.268,36.268,0,0,0,17.588-3.787l53.534,53.534a11.875,11.875,0,0,0,3.209,10.912l13.865,13.672a11.892,11.892,0,1,0,16.818-16.818Zm-159-119.072,4.365,4.3-5.328,5.328a32.1,32.1,0,0,1,.963-9.628Zm68.94,43.97-6.74-6.419,8.73-8.73,1.8,1.8A19.963,19.963,0,0,1,83.231,81.7ZM54.217,35.611l3.916,3.851-8.794,8.666L45.487,44.4ZM43.176,42.03,39.71,38.563,48.5,29.9l3.466,3.4Zm17.2,0,3.659,3.659-8.794,8.6L51.649,50.7Zm5.97,5.905,4.108,4.108-8.666,8.409-4.237-4.237Zm6.419,6.419,3.916,3.851-8.73,8.409-3.916-3.851Zm-13.287,8.73-7.7,7.7L47.413,66.1l7.767-7.639Zm2.247,2.247,3.916,3.851L58,76.5l-3.916-3.851Zm6.419,6.419L72.062,75.6l-7.831,7.318-3.916-3.851ZM70.393,69.5l8.73-8.73,3.916,3.851-8.73,8.73Zm14.892-7.125-3.916-3.851,3.466-3.466a54.7,54.7,0,0,1,1.476,6.419Zm-6.419-6.419L74.95,52.107l6.419-6.419c.77,1.861,1.476,3.787,2.118,5.649ZM72.447,49.54,68.339,45.5l8.73-8.537c.963,1.733,1.8,3.466,2.7,5.328Zm-6.419-6.419L62.3,39.462,73.089,29.449c1.027,1.412,1.99,2.953,2.953,4.557Zm-5.777-5.905-3.916-3.851L66.991,22.773a44.934,44.934,0,0,1,3.659,4.108ZM53.832,30.8l-3.4-3.4L60.251,17.7a31.581,31.581,0,0,1,3.98,2.76ZM48.5,25.148l-4.429-4.365,6.419-6.419a32.1,32.1,0,0,1,6.8,2.118Zm-2.311,2.247-8.73,8.922-4.3-4.3,8.666-8.73ZM35.153,38.563,27.386,46.2,23.149,42.03l7.7-7.7Zm-4.3-8.794-7.51-7.382A31.517,31.517,0,0,1,34.19,15.969L39.517,21.3Zm-2.247,2.247-7.7,7.7L15.318,34.2a31.709,31.709,0,0,1,5.777-9.564ZM20.9,44.4l4.237,4.172-9.821,9.307a32.1,32.1,0,0,1-1.862-6.419Zm6.419,6.419,3.53,3.53L19.875,65.266a31.325,31.325,0,0,1-2.824-4.3Zm2.311-2.247L37.4,40.81,40.994,44.4l-7.7,7.7Zm13.544-1.926L47.028,50.5l-7.767,7.7-3.851-3.851ZM49.6,53.07l3.595,3.595-8.024,7-3.53-3.53ZM43.176,66.486l-10.4,9.436q-2.182-1.284-4.172-2.7L39.325,62.57Zm2.311,2.247L49.916,73.1l-8.152,7.446c-2.118-.9-4.108-1.926-6.034-2.953Zm6.419,6.419L55.822,79,50.815,84.01c-1.926-.578-3.851-1.284-5.777-1.99Zm6.419,6.419,3.916,3.851-1.22,1.22A60.265,60.265,0,0,1,54.6,85.293ZM66.8,85.422l7.7-7.7,6.419,6.419a22.017,22.017,0,0,1-12.389,3.081ZM44.974,13.786h1.669l-4.814,4.943L37.72,14.621a32.1,32.1,0,0,1,7.253-.834ZM21.737,67.641l11.169-11.1,3.851,3.851L26.038,71.3c-1.155-.9-2.247-1.861-3.209-2.76ZM168.668,169.318h0a5.585,5.585,0,0,1-7.7,0l-13.8-13.737a5.456,5.456,0,0,1,7.7-7.7l13.8,13.8a5.456,5.456,0,0,1,0,7.7Z" transform="translate(-3.096 -3.651)" fill="#2e3192"/>
    </g>
  </g>
</svg>
