<svg xmlns="http://www.w3.org/2000/svg" width="252.305" height="291.092" viewBox="0 0 252.305 291.092">
  <g id="noun-bathroom-1183825" transform="translate(-22.271)">
    <path id="Path_98" data-name="Path 98" d="M258.37,174a7.422,7.422,0,0,0-5.938-2.969H52.743V41.021A25.206,25.206,0,0,1,77.919,15.845h13.6a25.206,25.206,0,0,1,24.345,19.328,38.982,38.982,0,0,0-30.7,38.061v5.492a7.422,7.422,0,0,0,7.422,7.422h63.03a7.422,7.422,0,0,0,7.422-7.422V73.233A38.952,38.952,0,0,0,131,34.935,40.051,40.051,0,0,0,91.517,1h-13.6A40.051,40.051,0,0,0,37.9,41.021V170.97H14.919a7.422,7.422,0,0,0-7.066,9.679l20.782,64.9a46.285,46.285,0,0,0,14.607,21.614L34.336,280.4a7.423,7.423,0,0,0,12.321,8.283l9.471-14.043a46.434,46.434,0,0,0,16.685,2.969H194.657a46.434,46.434,0,0,0,16.834-3.177l9.263,14.043a7.422,7.422,0,1,0,12.38-8.164l-8.907-13.39A46.285,46.285,0,0,0,238.716,245.4L259.5,180.5A7.422,7.422,0,0,0,258.37,174ZM124.116,49.156A24.108,24.108,0,0,1,148.1,71.3H100.1a24.108,24.108,0,0,1,24.019-22.148Zm100.557,191.85a31.411,31.411,0,0,1-30.016,21.91H72.694a31.411,31.411,0,0,1-30.016-21.91L24.865,185.784H242.338Z" transform="translate(14.77 -1)" fill="#2e3192"/>
    <ellipse id="Ellipse_37" data-name="Ellipse 37" cx="7.6" cy="7.6" rx="7.6" ry="7.6" transform="translate(146.1 119.944)" fill="#2e3192"/>
    <ellipse id="Ellipse_38" data-name="Ellipse 38" cx="7.6" cy="7.6" rx="7.6" ry="7.6" transform="translate(116.441 119.944)" fill="#2e3192"/>
    <ellipse id="Ellipse_39" data-name="Ellipse 39" cx="7.6" cy="7.6" rx="7.6" ry="7.6" transform="translate(160.945 142.388)" fill="#2e3192"/>
    <ellipse id="Ellipse_40" data-name="Ellipse 40" cx="7.6" cy="7.6" rx="7.6" ry="7.6" transform="translate(131.285 142.388)" fill="#2e3192"/>
    <ellipse id="Ellipse_41" data-name="Ellipse 41" cx="7.6" cy="7.6" rx="7.6" ry="7.6" transform="translate(101.596 142.388)" fill="#2e3192"/>
    <ellipse id="Ellipse_42" data-name="Ellipse 42" cx="7.6" cy="7.6" rx="7.6" ry="7.6" transform="translate(131.256 97.439)" fill="#2e3192"/>
  </g>
</svg>
