<svg xmlns="http://www.w3.org/2000/svg" width="237.512" height="237.512" viewBox="0 0 237.512 237.512">
  <g id="noun-bbq-5602761" transform="translate(59.156 17)">
    <g id="Group_98" data-name="Group 98" transform="translate(-59.155 -17)">
      <g id="Group_94" data-name="Group 94" transform="translate(13.904 40.622)">
        <g id="Group_92" data-name="Group 92">
          <g id="Group_91" data-name="Group 91">
            <path id="Path_99" data-name="Path 99" d="M22.388,44.063a12.69,12.69,0,1,1,12.7-12.69A12.712,12.712,0,0,1,22.388,44.063Zm0-17.261a4.57,4.57,0,1,0,4.585,4.57A4.583,4.583,0,0,0,22.388,26.8Z" transform="translate(-9.683 -18.682)" fill="#2e3192"/>
          </g>
        </g>
        <g id="Group_93" data-name="Group 93" transform="translate(25.26 94.385)">
          <ellipse id="Ellipse_43" data-name="Ellipse 43" cx="4.06" cy="4.06" rx="4.06" ry="4.06" fill="#2e3192"/>
        </g>
      </g>
      <g id="Group_95" data-name="Group 95" transform="translate(30.965)">
        <path id="Path_100" data-name="Path 100" d="M197.608,84.046H180.725a81.134,81.134,0,0,0,2.154-18.166c0-11-9.152-21.051-25.769-28.3-15.548-6.785-36.13-10.522-57.956-10.522S56.746,30.791,41.2,37.576C24.581,44.828,15.43,54.88,15.43,65.88s9.152,21.051,25.769,28.3c15.548,6.785,36.13,10.522,57.956,10.522s42.408-3.737,57.956-10.522a64.218,64.218,0,0,0,14.821-8.722A75.68,75.68,0,0,1,38.392,109.994a4.062,4.062,0,0,0-6.522,4.845,84.413,84.413,0,0,0,28.1,24.1L24.356,187.472a4.062,4.062,0,0,0,6.553,4.8l8.666-11.809h106.1a19.41,19.41,0,1,0,10.114-17.75l-17.435-23.759a84.072,84.072,0,0,0,40.06-46.789h19.2a4.06,4.06,0,1,0,0-8.12ZM33.981,81.017c-6.728-4.676-10.425-9.94-10.425-15.138s3.7-10.462,10.425-15.138Zm69.237-45.8a168.761,168.761,0,0,1,22.429,1.962v8.983A141.332,141.332,0,0,1,103.218,48.6ZM72.662,37.183a168.769,168.769,0,0,1,22.429-1.962V48.6a141.331,141.331,0,0,1-22.429-2.431ZM64.536,93.051a102.664,102.664,0,0,1-22.429-7.38V46.088a102.683,102.683,0,0,1,22.429-7.38V45A16.3,16.3,0,0,0,49.087,61.123c0,9.345,7.027,14.628,15.449,16.34Zm30.555,3.487a168.765,168.765,0,0,1-22.429-1.962V78.911a174.49,174.49,0,0,0,22.429,1.967Zm30.555-1.962a168.767,168.767,0,0,1-22.429,1.962V80.878a174.569,174.569,0,0,0,22.429-1.967Zm30.555-8.9a102.7,102.7,0,0,1-22.429,7.38V77.463c.923-.188,1.845-.38,2.764-.583a16.049,16.049,0,0,0,12.685-15.757A16.3,16.3,0,0,0,133.773,45V38.708a102.7,102.7,0,0,1,22.429,7.38V85.671h0Zm8.872,82.8a11.25,11.25,0,1,1-11.3,11.249A11.286,11.286,0,0,1,165.074,168.47Zm-15.468-.446a19.354,19.354,0,0,0-2.486,4.319H45.534l21.946-29.906a84.31,84.31,0,0,0,63.366.022Zm14.723-87.007V50.742c6.728,4.676,10.425,9.94,10.425,15.138s-3.7,10.462-10.425,15.138Z" transform="translate(-15.43 38.422)" fill="#2e3192"/>
        <path id="Path_101" data-name="Path 101" d="M24.76,38.288H29.4c.994,14.6,7.313,25.168,15.477,25.168S59.364,52.888,60.359,38.288H65.9a23.754,23.754,0,0,0,46.784,0h4.944c.994,14.6,7.313,25.168,15.477,25.168s14.483-10.567,15.477-25.168h8.866a15.228,15.228,0,1,0,0-8.12h-8.866C147.589,15.567,141.27,5,133.106,5s-14.483,10.567-15.477,25.168h-4.944a23.754,23.754,0,0,0-46.784,0H60.358C59.364,15.567,53.046,5,44.882,5S30.4,15.567,29.405,30.168H24.76a4.06,4.06,0,1,0,0,8.12Zm147.4-11.168a7.108,7.108,0,1,1-7.141,7.108A7.132,7.132,0,0,1,172.161,27.12ZM89.293,18.666A15.562,15.562,0,1,1,73.671,34.228,15.61,15.61,0,0,1,89.293,18.666Z" transform="translate(-5.06 -5)" fill="#2e3192"/>
      </g>
      <g id="Group_96" data-name="Group 96" transform="translate(186.813 153.607)">
        <path id="Path_102" data-name="Path 102" d="M89.707,105.423,82.735,92.658,70.092,85.733a4.1,4.1,0,0,1-.1-7.177l12.746-6.981L89.65,58.913a4.107,4.107,0,0,1,7.19-.1l6.972,12.765L116.454,78.5a4.1,4.1,0,0,1,.1,7.177l-12.746,6.981L96.84,105.423a4.064,4.064,0,0,1-7.133,0h0ZM80.4,82.116l7.289,3.993A4.061,4.061,0,0,1,89.3,87.724L93.274,95l3.975-7.279a4.058,4.058,0,0,1,1.614-1.615l7.289-3.993-7.289-3.993a4.061,4.061,0,0,1-1.614-1.615l-3.975-7.279L89.3,76.508a4.059,4.059,0,0,1-1.614,1.615Z" transform="translate(-67.923 -56.739)" fill="#2e3192"/>
      </g>
      <g id="Group_97" data-name="Group 97" transform="translate(0 156.071)">
        <path id="Path_103" data-name="Path 103" d="M26.783,106.253,19.812,93.488,7.169,86.563a4.1,4.1,0,0,1-.1-7.177L19.812,72.4l6.915-12.662a4.107,4.107,0,0,1,7.19-.1L40.888,72.4l12.643,6.925a4.1,4.1,0,0,1,.1,7.177L40.888,93.487l-6.972,12.765a4.065,4.065,0,0,1-7.133,0ZM17.472,82.946l7.289,3.993a4.061,4.061,0,0,1,1.614,1.615l3.975,7.279,3.975-7.279a4.058,4.058,0,0,1,1.614-1.615l7.289-3.993-7.289-3.993a4.061,4.061,0,0,1-1.614-1.615L30.35,70.06l-3.975,7.279a4.058,4.058,0,0,1-1.614,1.615Z" transform="translate(-5 -57.569)" fill="#2e3192"/>
      </g>
    </g>
  </g>
</svg>
