<svg xmlns="http://www.w3.org/2000/svg" width="162.168" height="227.035" viewBox="0 0 162.168 227.035">
  <g id="noun-chef-6563295" transform="translate(-71.254)">
    <path id="Path_105" data-name="Path 105" d="M129.41,93.138H80.759v10.136a24.325,24.325,0,1,0,48.651,0Zm16.217-72.976v83.111a40.476,40.476,0,0,1-16.217,32.436v6.079a56.759,56.759,0,0,1,56.759,56.759v24.325a12.163,12.163,0,0,1-12.163,12.163H36.163A12.163,12.163,0,0,1,24,222.873V198.547a56.759,56.759,0,0,1,56.759-56.759v-6.079a40.476,40.476,0,0,1-16.217-32.436V20.163A12.163,12.163,0,0,1,76.7,8h56.759a12.163,12.163,0,0,1,12.163,12.163ZM80.759,24.217v52.7H129.41v-52.7Zm0,166.782,18.23-25.655a24.364,24.364,0,0,0,24.226-7.338h6.195a40.541,40.541,0,0,1,40.542,40.542v20.271H80.759ZM113.1,143.025a8.11,8.11,0,0,1-16.03,0,40.975,40.975,0,0,0,16.03,0Zm-28.793,14.98L66.788,182.661a12.162,12.162,0,0,0-2.246,7.044v29.113H40.217V198.547a40.541,40.541,0,0,1,40.542-40.542h3.549ZM121.3,188.412a8.108,8.108,0,0,1,8.108-8.108h17.23a8.108,8.108,0,1,1,0,16.217H129.41A8.108,8.108,0,0,1,121.3,188.412Zm-16.217,4.054a10.135,10.135,0,1,0-10.136-10.135,10.136,10.136,0,0,0,10.136,10.135Zm10.136,14.19a10.136,10.136,0,1,1-10.136-10.136A10.136,10.136,0,0,1,115.22,206.656Z" transform="translate(47.254 -8)" fill="#2e3192" fill-rule="evenodd"/>
  </g>
</svg>
