<svg xmlns="http://www.w3.org/2000/svg" width="224.773" height="225.367" viewBox="0 0 224.773 225.367">
  <g id="noun-dining-room-2366298" transform="translate(171.186 4.408)">
    <g id="Layer_68" data-name="Layer 68" transform="translate(-171.187 -4)">
      <path id="Path_106" data-name="Path 106" d="M14.645,97.871H6l.13-9.683L15.51,46H79.484V97.871H70.838V54.645H22.426L14.645,89.614Z" transform="translate(-6 127.088)" fill="#2e3192"/>
      <path id="Path_107" data-name="Path 107" d="M83.806,124.41H14.645V103.1L6.475,48.766A13.357,13.357,0,0,1,6,45.307V37.959a12.968,12.968,0,0,1,25.935,0V45a4.02,4.02,0,0,0,0,1.254v.648l7.781,51.265,31.122.3a12.968,12.968,0,0,1,12.968,12.968ZM23.29,115.765H75.161v-4.323a4.323,4.323,0,0,0-4.323-4.323l-38.3-.259L23.679,48.549A14.264,14.264,0,0,1,23.2,45V37.959a4.323,4.323,0,0,0-8.645,0v7.348a3.977,3.977,0,0,0,.086,1.3v.648L23.29,102.8Z" transform="translate(-6 57.323)" fill="#2e3192"/>
      <path id="Path_108" data-name="Path 108" d="M105.838,97.871V89.614L98.058,54.645H49.645V97.871H41V46h63.974l9.51,43.139v8.732Z" transform="translate(110.29 127.088)" fill="#2e3192"/>
      <path id="Path_109" data-name="Path 109" d="M109.161,124.378H40V111.41A12.968,12.968,0,0,1,52.968,98.442l30.906-.216,7.91-51.871A4.019,4.019,0,0,0,92,45.1V37.927a12.9,12.9,0,0,1,25.806,0v7.348a13.356,13.356,0,0,1-.475,3.458l-8.17,54.334Zm-60.516-8.645h51.871V102.116l8.645-55.545a3.977,3.977,0,0,0,0-1.254V37.927a4.323,4.323,0,0,0-8.645,0v7.046a14.006,14.006,0,0,1-.476,3.544L91.4,106.785l-38.428.3a4.323,4.323,0,0,0-4.323,4.323Zm38.9-13.227Z" transform="translate(106.967 57.355)" fill="#2e3192"/>
      <path id="Path_110" data-name="Path 110" d="M131.387,59.935H19V34H131.387ZM27.645,51.29h95.1V42.645h-95.1Z" transform="translate(37.193 87.217)" fill="#2e3192"/>
      <rect id="Rectangle_276" data-name="Rectangle 276" width="147" height="6" transform="translate(39.955 122.593)" fill="#2e3192"/>
      <path id="Path_111" data-name="Path 111" d="M23.656,127.773H15.011v-4.323a90.773,90.773,0,0,1,8.645-40.329,91.508,91.508,0,0,0,8.645-41.8V37h8.645v4.323A100.11,100.11,0,0,1,31.61,86.493a82.56,82.56,0,0,0-7.954,36.958Z" transform="translate(23.892 97.185)" fill="#2e3192"/>
      <path id="Path_112" data-name="Path 112" d="M68.967,127.773H60.322v-4.323a82.56,82.56,0,0,0-7.954-36.958,100.11,100.11,0,0,1-9.337-45.171V37h8.645v4.323a91.508,91.508,0,0,0,8.645,41.8,90.773,90.773,0,0,1,8.645,40.329Z" transform="translate(116.903 97.185)" fill="#2e3192"/>
      <path id="Path_113" data-name="Path 113" d="M93.161,36.935H24V32.613A21.613,21.613,0,0,1,45.613,11H71.548A21.613,21.613,0,0,1,93.161,32.613ZM33.38,28.29h50.4a12.968,12.968,0,0,0-12.233-8.645H45.613a12.968,12.968,0,0,0-9.207,3.8A13.486,13.486,0,0,0,33.38,28.29Z" transform="translate(53.806 10.799)" fill="#2e3192"/>
      <path id="Path_114" data-name="Path 114" d="M41.968,36.613a12.954,12.954,0,0,1-11.2-19.495L32.026,15H51.91l1.254,2.118a12.954,12.954,0,0,1-11.2,19.495ZM37.645,23.645a4.323,4.323,0,0,0,8.645,0Z" transform="translate(70.419 24.089)" fill="#2e3192"/>
      <rect id="Rectangle_277" data-name="Rectangle 277" width="9" height="31" transform="translate(106.955 -0.407)" fill="#2e3192"/>
    </g>
  </g>
</svg>
