<svg id="noun-garden-2215538" xmlns="http://www.w3.org/2000/svg" width="247.143" height="225.893" viewBox="0 0 247.143 225.893">
  <path id="Path_115" data-name="Path 115" d="M52.271,11.325,1.367,53.349a3.861,3.861,0,0,0,4.922,5.946l49.649-41,49.669,41a3.861,3.861,0,1,0,4.922-5.946l-50.9-42.024a5.791,5.791,0,0,0-7.355,0Z" transform="translate(0.042 -2.232)" fill="#2e3192"/>
  <path id="Path_116" data-name="Path 116" d="M243.228,144.12h-50.19v-6.235a19.3,19.3,0,0,0,6.2-2.394,12.2,12.2,0,0,0,5.907,1.544c7.2,0,12.991-6.428,12.991-14.15a14.15,14.15,0,0,0-8.61-13.339C207.226,99.374,198.829,92,189.177,92s-18.049,7.374-20.346,17.547a14.15,14.15,0,0,0-8.609,13.339c0,7.721,5.791,14.15,12.991,14.15a12.2,12.2,0,0,0,5.907-1.544,19.3,19.3,0,0,0,6.2,2.394v6.235H127.405v-6.235a19.3,19.3,0,0,0,6.2-2.394,12.2,12.2,0,0,0,5.907,1.544c7.2,0,12.991-6.428,12.991-14.15a14.15,14.15,0,0,0-8.61-13.339C141.593,99.374,133.2,92,123.544,92S105.5,99.374,103.2,109.547a14.15,14.15,0,0,0-8.61,13.339c0,7.721,5.791,14.15,12.991,14.15a12.2,12.2,0,0,0,5.907-1.544,19.3,19.3,0,0,0,6.2,2.394v6.235H61.772v-6.235a19.3,19.3,0,0,0,6.2-2.394,12.2,12.2,0,0,0,5.907,1.544c7.2,0,12.991-6.428,12.991-14.15a14.15,14.15,0,0,0-8.61-13.339C75.961,99.374,67.563,92,57.911,92s-18.049,7.374-20.346,17.547a14.15,14.15,0,0,0-8.61,13.339c0,7.721,5.791,14.15,12.991,14.15a12.2,12.2,0,0,0,5.907-1.544,19.3,19.3,0,0,0,6.2,2.394v6.235H3.861a3.861,3.861,0,1,0,0,7.721H243.228a3.861,3.861,0,1,0,0-7.721ZM57.911,113.234a3.861,3.861,0,0,0-3.861,3.861h0a8.88,8.88,0,0,0-4.478-.444,3.91,3.91,0,1,0,1.235,7.722c.753-.135,2.162.811,3.243,1.93v3.629a12.007,12.007,0,0,1-3.861-2.123,3.861,3.861,0,0,0-5.135.193,4.594,4.594,0,0,1-3.2,1.351,5.926,5.926,0,0,1-5.173-6.467,6.139,6.139,0,0,1,4.729-6.39,3.861,3.861,0,0,0,3.378-3.4c.888-7.586,6.525-13.377,13.127-13.377S70.15,105.513,71.038,113.1a3.861,3.861,0,0,0,3.378,3.4,6.139,6.139,0,0,1,4.729,6.39,5.926,5.926,0,0,1-5.27,6.428,4.594,4.594,0,0,1-3.2-1.351,3.861,3.861,0,0,0-5.135-.193,12.007,12.007,0,0,1-3.861,2.123v-2.529c1.12-1.448,2.625-2.645,3.127-2.548a3.863,3.863,0,1,0,1.467-7.586,8.127,8.127,0,0,0-4.594.483v-.618A3.861,3.861,0,0,0,57.911,113.234Zm65.633,0a3.861,3.861,0,0,0-3.861,3.861h0a8.88,8.88,0,0,0-4.478-.444,3.91,3.91,0,1,0,1.235,7.722c.753-.135,2.162.811,3.243,1.93v3.629a12.007,12.007,0,0,1-3.861-2.123,3.861,3.861,0,0,0-5.135.193,4.594,4.594,0,0,1-3.2,1.351,5.926,5.926,0,0,1-5.173-6.467,6.139,6.139,0,0,1,4.729-6.39,3.861,3.861,0,0,0,3.378-3.4c.888-7.586,6.525-13.377,13.127-13.377s12.239,5.791,13.127,13.377a3.861,3.861,0,0,0,3.378,3.4,6.139,6.139,0,0,1,4.729,6.39,5.926,5.926,0,0,1-5.27,6.428,4.594,4.594,0,0,1-3.2-1.351,3.861,3.861,0,0,0-5.135-.193,12.007,12.007,0,0,1-3.861,2.123v-2.529c1.12-1.448,2.645-2.645,3.127-2.548a3.863,3.863,0,1,0,1.467-7.586,8.127,8.127,0,0,0-4.594.483v-.618A3.861,3.861,0,0,0,123.544,113.234Zm65.633,0a3.861,3.861,0,0,0-3.861,3.861h0a8.88,8.88,0,0,0-4.478-.444,3.91,3.91,0,1,0,1.235,7.722c.753-.135,2.162.811,3.243,1.93v3.629a12.007,12.007,0,0,1-3.861-2.123,3.861,3.861,0,0,0-5.135.193,4.594,4.594,0,0,1-3.2,1.351,5.926,5.926,0,0,1-5.173-6.467,6.139,6.139,0,0,1,4.729-6.389,3.861,3.861,0,0,0,3.378-3.4c.888-7.586,6.525-13.377,13.127-13.377s12.239,5.791,13.127,13.377a3.861,3.861,0,0,0,3.378,3.4,6.139,6.139,0,0,1,4.729,6.39,5.926,5.926,0,0,1-5.27,6.428,4.594,4.594,0,0,1-3.2-1.351,3.861,3.861,0,0,0-5.135-.193,12.006,12.006,0,0,1-3.861,2.123v-2.529c1.12-1.448,2.645-2.645,3.127-2.548a3.863,3.863,0,0,0,1.467-7.586,8.127,8.127,0,0,0-4.594.483v-.618A3.861,3.861,0,0,0,189.177,113.234Z" transform="translate(0 74.051)" fill="#2e3192"/>
  <path id="Path_117" data-name="Path 117" d="M3.068,82.912l21.62,4.324a3.861,3.861,0,0,0,1.506,0l20.867-4.189,20.848,4.17a3.861,3.861,0,0,0,1.506,0L90.3,83.047l20.867,4.17a3.861,3.861,0,1,0,1.506-7.567l-21.62-4.324a3.861,3.861,0,0,0-1.506,0L68.663,79.515l-20.848-4.17a3.861,3.861,0,0,0-1.506,0l-20.867,4.17L4.574,75.326a3.861,3.861,0,0,0-1.525,7.567Z" transform="translate(0.039 58.469)" fill="#2e3192"/>
  <path id="Path_118" data-name="Path 118" d="M123.755,87.651l-21.62-4.324a3.861,3.861,0,0,0-1.506,0L79.742,87.516l-20.848-4.17a3.861,3.861,0,0,0-1.506,0l-20.867,4.17-20.848-4.17a3.861,3.861,0,1,0-1.525,7.567l21.62,4.324a3.862,3.862,0,0,0,1.506,0l20.867-4.189,20.848,4.17a3.861,3.861,0,0,0,1.506,0l20.887-4.17,20.867,4.17a3.861,3.861,0,1,0,1.506-7.567Z" transform="translate(10.194 65.911)" fill="#2e3192"/>
  <path id="Path_119" data-name="Path 119" d="M177,84.811,156.939,80.8a3.861,3.861,0,0,0-1.506,0l-19.3,3.861-19.3-3.861a3.861,3.861,0,0,0-1.506,0l-19.3,3.861L76.713,80.8a3.861,3.861,0,1,0-1.525,7.567l19.979,4.015a3.861,3.861,0,0,0,1.506,0l19.3-3.861,19.3,3.861a3.861,3.861,0,0,0,1.506,0l19.3-3.861,19.3,3.861a3.861,3.861,0,1,0,1.506-7.567Z" transform="translate(66.985 63.538)" fill="#2e3192"/>
  <path id="Path_120" data-name="Path 120" d="M236.715,110.259a3.861,3.861,0,1,0,0-7.721h-5.791V87.094a9.652,9.652,0,0,0-9.652-9.652H196.177v-9.9a29.38,29.38,0,0,0,11.582-4.112A17.624,17.624,0,0,0,216.89,66a18.319,18.319,0,0,0,4.865-35.866,30.017,30.017,0,0,0-58.877,0A18.319,18.319,0,0,0,167.743,66a17.624,17.624,0,0,0,9.131-2.567,29.381,29.381,0,0,0,11.582,4.112v9.9H163.361a9.652,9.652,0,0,0-9.652,9.652v15.443H138.266V98.194a3.861,3.861,0,0,0-7.722,0v4.343h-7.722V98.194a3.861,3.861,0,0,0-7.722,0v4.343H107.38V98.194a3.861,3.861,0,0,0-7.722,0v4.343H88.076v-39.4a3.861,3.861,0,0,0-1.409-3.069L53.117,32.446a5.791,5.791,0,0,0-7.3,0L12.27,60.069a3.861,3.861,0,0,0-1.409,3.069v60.633a3.861,3.861,0,1,0,0,7.721H88.076a3.861,3.861,0,1,0,0-7.721V110.259H99.658v14.96a3.861,3.861,0,0,0,7.722,0v-14.96H115.1v14.96a3.861,3.861,0,0,0,7.722,0v-14.96h7.722v14.96a3.861,3.861,0,0,0,7.722,0v-14.96h15.443v13.03h-3.861a3.861,3.861,0,1,0,0,7.721h1.93v7.721a3.861,3.861,0,0,0,7.722,0v-7.239h67.428v6.525a3.861,3.861,0,0,0,7.722,0V131.01h2.066a3.861,3.861,0,1,0,0-7.721h-5.791v-13.03Zm-171.8,13.513H34.025v-19.3a15.443,15.443,0,0,1,30.886,0ZM179.132,55.649a3.861,3.861,0,0,0-4.865.154,9.845,9.845,0,0,1-6.525,2.471,10.578,10.578,0,0,1-1.1-21.041,3.861,3.861,0,0,0,3.417-3.359,22.373,22.373,0,0,1,44.515,0,3.861,3.861,0,0,0,3.417,3.359,10.578,10.578,0,0,1-1.1,21.041,9.846,9.846,0,0,1-6.526-2.472,3.861,3.861,0,0,0-4.863-.153,21.717,21.717,0,0,1-9.324,4.073V51.9c1.93-3.494,5.231-6.93,6.834-6.544a3.868,3.868,0,1,0,1.776-7.528,10.154,10.154,0,0,0-8.609,2.278V33.585a3.861,3.861,0,0,0-7.722,0V38.97a10.482,10.482,0,0,0-8.571-2.181,3.868,3.868,0,1,0,1.7,7.548c1.93-.425,5.077,3.127,6.93,6.158a2.818,2.818,0,0,0,0,.425v8.8a21.717,21.717,0,0,1-9.382-4.073Zm44.071,60.4H161.431v-7.721H223.2Zm0-17.373H161.431V90.955H223.2Z" transform="translate(6.513 -5.98)" fill="#2e3192"/>
</svg>
