<svg xmlns="http://www.w3.org/2000/svg" width="178.666" height="194.418" viewBox="0 0 178.666 194.418">
  <g id="noun-kitchen-1092638" transform="translate(-18.622)">
    <g id="Group_99" data-name="Group 99" transform="translate(18.622 0)">
      <path id="Path_121" data-name="Path 121" d="M-888.887,1029.081l17.792,27.608,12.475-14.315-18.61-21.882c7.976-11.657,5.931-30.88-5.931-46.627-13.906-18.61-36.2-25.767-49.694-15.747s-13.088,33.334.818,51.944C-919.971,1026.014-902.18,1033.375-888.887,1029.081Z" transform="translate(942.728 -953.259)" fill="#2e3192"/>
      <path id="Path_122" data-name="Path 122" d="M-883.6,1010.1l-13.5,21.064,32.721,50.512a15.171,15.171,0,0,0,21.882,3.885l1.227-1.022a15.293,15.293,0,0,0,2.454-22.086Z" transform="translate(990.41 -894.195)" fill="#2e3192"/>
      <path id="Path_123" data-name="Path 123" d="M-776.609,975.462a4.426,4.426,0,0,0-6.953.2s-23.313,29.857-29.858,38.242a3.162,3.162,0,0,1-4.09.613h0a2.923,2.923,0,0,1-.613-4.09l28.017-39.469a4.617,4.617,0,0,0-.2-5.726,4.426,4.426,0,0,0-6.953.2s-23.313,29.857-29.858,38.242a3.162,3.162,0,0,1-4.09.613h0a2.923,2.923,0,0,1-.613-4.09c6.34-8.794,28.221-39.674,28.221-39.674a4.523,4.523,0,0,0-1.841-6.749,4.838,4.838,0,0,0-5.522,1.432l-31.493,40.491h0l-4.09,5.317c-4.09,5.522-5.931,12.066-5.112,17.792l1.841,11.861-78.325,90.8a15.293,15.293,0,0,0,2.454,22.086l1.227,1.022a15.228,15.228,0,0,0,21.882-3.886l64.623-100.82,12.066-1.636c5.726-.818,11.452-4.5,15.747-10.021l4.09-5.317h0l29.653-41.719A4.617,4.617,0,0,0-776.609,975.462Z" transform="translate(954.175 -953.423)" fill="#2e3192"/>
    </g>
  </g>
</svg>
