<svg xmlns="http://www.w3.org/2000/svg" width="219.267" height="219.266" viewBox="0 0 219.267 219.266">
  <g id="noun-living-room-4774972" transform="translate(-2.969)">
    <path id="Path_124" data-name="Path 124" d="M203.137,131.189a16.871,16.871,0,0,0-10.278,3.529V122.727a15.528,15.528,0,0,0-15.52-15.52H122.727a15.4,15.4,0,0,0-12.094,5.927,15.4,15.4,0,0,0-12.094-5.927H43.928a15.528,15.528,0,0,0-15.52,15.52v11.991a16.871,16.871,0,0,0-10.278-3.529V33.547a25.681,25.681,0,0,1,51.322-1.439A24.015,24.015,0,0,0,48.965,55.816a3.436,3.436,0,0,0,3.426,3.426H93.5a3.436,3.436,0,0,0,3.426-3.426A23.97,23.97,0,0,0,76.3,32.108a32.529,32.529,0,0,0-65.026,1.439v99.081A17.18,17.18,0,0,0,1,148.319v41.112a17.136,17.136,0,0,0,17.13,17.13H35.26V216.84a3.436,3.436,0,0,0,3.426,3.426H48.965a3.385,3.385,0,0,0,3.049-1.884l5.927-11.82H163.36l5.893,11.82a3.385,3.385,0,0,0,3.049,1.884H182.58a3.436,3.436,0,0,0,3.426-3.426V206.562h17.13a17.136,17.136,0,0,0,17.13-17.13V148.319A17.136,17.136,0,0,0,203.137,131.189Zm-113.4-78.8H56.159a17.135,17.135,0,0,1,33.575,0Zm-58,147.319a17.09,17.09,0,0,0,3.529-10.278v-6.852H186.006v6.852a16.871,16.871,0,0,0,3.529,10.278Zm3.974-23.982a13.713,13.713,0,0,1,13.259-10.278H93.5a13.713,13.713,0,0,1,13.259,10.278Zm78.8,0a13.713,13.713,0,0,1,13.259-10.278H172.3a13.713,13.713,0,0,1,13.259,10.278Zm8.222-61.668h54.611a8.678,8.678,0,0,1,8.668,8.668v41.147a20.485,20.485,0,0,0-13.7-5.276H127.764a20.485,20.485,0,0,0-13.7,5.276V122.727A8.678,8.678,0,0,1,122.727,114.059ZM35.26,122.727a8.656,8.656,0,0,1,8.668-8.668H98.539a8.678,8.678,0,0,1,8.668,8.668v41.147A20.485,20.485,0,0,0,93.5,158.6H48.965a20.485,20.485,0,0,0-13.7,5.276V122.727Zm-27.408,66.7V148.319a10.278,10.278,0,0,1,20.556,0v41.112a10.278,10.278,0,0,1-20.556,0ZM46.84,213.414H42.113v-6.852h8.154Zm132.314,0h-4.728L171,206.562h8.154Zm34.26-23.982a10.278,10.278,0,0,1-20.556,0V148.319a10.278,10.278,0,0,1,20.556,0Z" transform="translate(1.969 -1)" fill="#2e3192"/>
    <path id="Path_125" data-name="Path 125" d="M17.547,44.145a3.6,3.6,0,1,0,0-7.195,3.6,3.6,0,1,0,0,7.195Z" transform="translate(33.386 86.216)" fill="#2e3192"/>
    <path id="Path_126" data-name="Path 126" d="M24.547,44.145a3.6,3.6,0,1,0,0-7.195,3.6,3.6,0,1,0,0,7.195Z" transform="translate(50.368 86.216)" fill="#2e3192"/>
    <path id="Path_127" data-name="Path 127" d="M30.547,44.145a3.6,3.6,0,1,0-3.6-3.6A3.737,3.737,0,0,0,30.547,44.145Z" transform="translate(64.925 86.216)" fill="#2e3192"/>
    <path id="Path_128" data-name="Path 128" d="M17.547,49.145a3.6,3.6,0,1,0,0-7.195,3.6,3.6,0,1,0,0,7.195Z" transform="translate(33.386 98.346)" fill="#2e3192"/>
    <path id="Path_129" data-name="Path 129" d="M24.547,49.145a3.6,3.6,0,1,0,0-7.195,3.6,3.6,0,1,0,0,7.195Z" transform="translate(50.368 98.346)" fill="#2e3192"/>
    <path id="Path_130" data-name="Path 130" d="M30.547,49.145a3.6,3.6,0,1,0-3.6-3.6A3.737,3.737,0,0,0,30.547,49.145Z" transform="translate(64.925 98.346)" fill="#2e3192"/>
    <path id="Path_131" data-name="Path 131" d="M40.547,44.145a3.6,3.6,0,1,0-3.6-3.6A3.737,3.737,0,0,0,40.547,44.145Z" transform="translate(89.185 86.216)" fill="#2e3192"/>
    <path id="Path_132" data-name="Path 132" d="M47.547,44.145a3.6,3.6,0,1,0-3.6-3.6A3.737,3.737,0,0,0,47.547,44.145Z" transform="translate(106.167 86.216)" fill="#2e3192"/>
    <path id="Path_133" data-name="Path 133" d="M53.547,44.145a3.6,3.6,0,1,0-3.6-3.6A3.737,3.737,0,0,0,53.547,44.145Z" transform="translate(120.724 86.216)" fill="#2e3192"/>
    <path id="Path_134" data-name="Path 134" d="M40.547,49.145a3.6,3.6,0,1,0-3.6-3.6A3.737,3.737,0,0,0,40.547,49.145Z" transform="translate(89.185 98.346)" fill="#2e3192"/>
    <path id="Path_135" data-name="Path 135" d="M47.547,49.145a3.6,3.6,0,1,0-3.6-3.6A3.737,3.737,0,0,0,47.547,49.145Z" transform="translate(106.167 98.346)" fill="#2e3192"/>
    <path id="Path_136" data-name="Path 136" d="M53.547,49.145a3.6,3.6,0,1,0-3.6-3.6A3.737,3.737,0,0,0,53.547,49.145Z" transform="translate(120.724 98.346)" fill="#2e3192"/>
    <path id="Path_137" data-name="Path 137" d="M37.426,72.947h99.355a3.436,3.436,0,0,0,3.426-3.426V4.426A3.436,3.436,0,0,0,136.781,1H37.426A3.436,3.436,0,0,0,34,4.426V69.521A3.436,3.436,0,0,0,37.426,72.947ZM40.852,7.852h92.5V66.094h-92.5Z" transform="translate(82.028 -1)" fill="#2e3192"/>
    <path id="Path_138" data-name="Path 138" d="M113.373,5H41.426A3.436,3.436,0,0,0,38,8.426V46.112a3.436,3.436,0,0,0,3.426,3.426h71.947a3.436,3.436,0,0,0,3.426-3.426V8.426A3.436,3.436,0,0,0,113.373,5Zm-3.426,37.686H44.852V11.852h65.095Z" transform="translate(91.733 8.704)" fill="#2e3192"/>
  </g>
</svg>
