<svg xmlns="http://www.w3.org/2000/svg" width="360.054" height="359.944" viewBox="0 0 360.054 359.944">
  <g id="noun-hospitality-4863958" transform="translate(-45.007)">
    <path id="Path_75" data-name="Path 75" d="M65.437,231.927A15.823,15.823,0,0,1,69.3,242.287v42.319a4.5,4.5,0,0,0,4.5,4.5h76.753a4.5,4.5,0,0,0,4.5-4.5V193.291a24.647,24.647,0,0,0-7.27-17.548L93.57,121.534a24.968,24.968,0,0,0-33.628-1.541V58.97c0-13.225-9.9-24.53-22.534-25.736A24.98,24.98,0,0,0,10,58.089v93.035a45.164,45.164,0,0,0,11.023,29.558ZM19,58.089a16.017,16.017,0,0,1,5.23-11.821A15.839,15.839,0,0,1,36.556,42.2c8.065.769,14.385,8.138,14.385,16.774v79.944c0,.059,0,.119,0,.178v.1a24.81,24.81,0,0,0,7.314,17.658l34.265,34.269a4.5,4.5,0,1,0,6.364-6.364L64.623,150.482a15.972,15.972,0,0,1,0-22.585,16.348,16.348,0,0,1,22.582,0l54.215,54.21a15.71,15.71,0,0,1,4.633,11.184v86.814H78.3V242.287a24.835,24.835,0,0,0-6.061-16.253L27.827,174.788A36.149,36.149,0,0,1,19,151.124Z" transform="translate(35.007 70.837)"/>
    <path id="Path_76" data-name="Path 76" d="M175.417,33.231c-12.636,1.206-22.534,12.511-22.534,25.736V119.99a24.968,24.968,0,0,0-33.628,1.541L65.04,175.741a24.646,24.646,0,0,0-7.27,17.548V284.6a4.5,4.5,0,0,0,4.5,4.5h76.753a4.5,4.5,0,0,0,4.5-4.5V242.284a15.823,15.823,0,0,1,3.863-10.359L191.8,180.679a45.164,45.164,0,0,0,11.023-29.558V58.086a24.98,24.98,0,0,0-27.408-24.855Zm18.407,117.89A36.148,36.148,0,0,1,185,174.785L140.585,226.03a24.835,24.835,0,0,0-6.061,16.253V280.1H66.772V193.288A15.71,15.71,0,0,1,71.4,182.1l54.215-54.21a16.348,16.348,0,0,1,22.582,0,15.972,15.972,0,0,1,0,22.585l-34.265,34.269a4.5,4.5,0,1,0,6.364,6.364l34.265-34.269a24.81,24.81,0,0,0,7.314-17.658v-.1c0-.059,0-.119,0-.178V58.967c0-8.637,6.32-16.005,14.385-16.774a15.826,15.826,0,0,1,12.324,4.072,16.017,16.017,0,0,1,5.23,11.821Z" transform="translate(202.235 70.84)"/>
    <path id="Path_77" data-name="Path 77" d="M104.147,40.23l-24.31-7.692L65.012,11.8a4.666,4.666,0,0,0-7.322,0L42.864,32.539,18.555,40.23a4.5,4.5,0,0,0-2.264,6.964L31.433,67.7l-.193,25.5a4.5,4.5,0,0,0,5.925,4.305l24.187-8.065,24.187,8.065A4.5,4.5,0,0,0,91.462,93.2l-.193-25.5,15.141-20.51a4.5,4.5,0,0,0-2.263-6.964ZM83.133,63.567a4.5,4.5,0,0,0-.879,2.707l.158,20.7L62.775,80.427a4.51,4.51,0,0,0-2.848,0L40.289,86.975l.158-20.7a4.5,4.5,0,0,0-.879-2.707L27.275,46.913,47.009,40.67A4.507,4.507,0,0,0,49.312,39l12.038-16.84L73.389,39a4.507,4.507,0,0,0,2.3,1.675l19.734,6.243Z" transform="translate(53.953 -10.024)"/>
    <path id="Path_78" data-name="Path 78" d="M128.416,40.23l-24.31-7.692L89.281,11.8a4.666,4.666,0,0,0-7.322,0L67.134,32.539,42.819,40.23A4.5,4.5,0,0,0,40.556,47.2L55.7,67.7l-.193,25.5a4.5,4.5,0,0,0,5.925,4.305L85.62,89.441l24.187,8.065a4.5,4.5,0,0,0,5.925-4.305l-.2-25.5L130.679,47.2a4.5,4.5,0,0,0-2.264-6.966ZM107.4,63.564a4.518,4.518,0,0,0-.879,2.71l.163,20.7L87.044,80.426a4.51,4.51,0,0,0-2.848,0L64.558,86.975l.158-20.7a4.513,4.513,0,0,0-.879-2.71l-12.3-16.651L71.278,40.67A4.507,4.507,0,0,0,73.581,39L85.62,22.155,97.658,39a4.507,4.507,0,0,0,2.3,1.675L119.7,46.913Z" transform="translate(138.895 -10.024)"/>
    <path id="Path_79" data-name="Path 79" d="M155.6,43.131a4.5,4.5,0,0,0-2.923-2.9l-24.31-7.692L113.542,11.8a4.666,4.666,0,0,0-7.322,0L91.395,32.539,67.085,40.23A4.5,4.5,0,0,0,64.821,47.2L79.967,67.7l-.2,25.5a4.5,4.5,0,0,0,5.925,4.305l24.187-8.065,24.187,8.065a4.5,4.5,0,0,0,5.925-4.305L139.8,67.7l15.141-20.51A4.5,4.5,0,0,0,155.6,43.131ZM131.664,63.566a4.5,4.5,0,0,0-.879,2.707l.158,20.7-19.638-6.549a4.51,4.51,0,0,0-2.848,0L88.819,86.975l.163-20.7a4.518,4.518,0,0,0-.879-2.71l-12.3-16.651L95.54,40.67A4.507,4.507,0,0,0,97.843,39l12.038-16.84L121.92,39a4.507,4.507,0,0,0,2.3,1.675l19.734,6.243Z" transform="translate(223.841 -10.024)"/>
    <path id="Path_80" data-name="Path 80" d="M69.322,32.706,54.5,53.447l-24.31,7.692A4.5,4.5,0,0,0,27.924,68.1L43.065,88.615l-.193,25.494a4.5,4.5,0,0,0,5.925,4.305l24.187-8.065,24.187,8.065a4.5,4.5,0,0,0,5.925-4.305l-.2-25.494L118.043,68.1a4.5,4.5,0,0,0-2.264-6.966L91.47,53.447,76.645,32.706A4.666,4.666,0,0,0,69.322,32.706Zm18,28.872,19.734,6.243-12.3,16.653a4.518,4.518,0,0,0-.879,2.71l.163,20.7-19.638-6.549a4.51,4.51,0,0,0-2.848,0l-19.638,6.549.158-20.7a4.5,4.5,0,0,0-.879-2.707L38.908,67.821l19.734-6.243a4.507,4.507,0,0,0,2.3-1.675l12.038-16.84L85.022,59.9A4.5,4.5,0,0,0,87.325,61.578Z" transform="translate(94.675 63.169)"/>
    <path id="Path_81" data-name="Path 81" d="M94.587,32.706,79.762,53.447l-24.31,7.692A4.5,4.5,0,0,0,53.189,68.1l15.146,20.51-.193,25.494a4.5,4.5,0,0,0,5.925,4.305l24.182-8.065,24.187,8.065a4.5,4.5,0,0,0,5.925-4.305l-.193-25.494L143.312,68.1a4.5,4.5,0,0,0-2.264-6.966l-24.314-7.692L101.909,32.706A4.666,4.666,0,0,0,94.587,32.706Zm18,28.872,19.739,6.243-12.3,16.653a4.513,4.513,0,0,0-.879,2.71l.158,20.7-19.638-6.549a4.51,4.51,0,0,0-2.848,0l-19.633,6.549.158-20.7a4.513,4.513,0,0,0-.879-2.71l-12.3-16.653,19.734-6.243a4.507,4.507,0,0,0,2.3-1.675l12.038-16.84L110.287,59.9A4.508,4.508,0,0,0,112.59,61.578Z" transform="translate(183.118 63.169)"/>
  </g>
</svg>
