<svg xmlns="http://www.w3.org/2000/svg" width="405.105" height="345.741" viewBox="0 0 405.105 345.741">
  <g id="noun-investment-6508502" transform="translate(-11.252)">
    <path id="Path_82" data-name="Path 82" d="M29.864,228.768h31.73a8.759,8.759,0,0,1,8.731,8.731v56.573a8.759,8.759,0,0,1-8.731,8.731H29.864a8.759,8.759,0,0,1-8.731-8.731V237.5a8.759,8.759,0,0,1,8.731-8.731Zm-.675-55.313a4.734,4.734,0,0,1-5.986-7.336L159.8,54.232a4.712,4.712,0,0,1,6.526.5l32.585,31.955,83.352-67.915L265.7,18.541a4.726,4.726,0,1,1,.09-9.451l29.434.36a4.738,4.738,0,0,1,4.681,5.941h0L292.3,43.97a4.749,4.749,0,0,1-9.181-2.43l3.871-14.492L201.655,96.583a4.716,4.716,0,0,1-6.391-.225l-32.81-32.135L29.144,173.454h0ZM334.2,241.414a4.726,4.726,0,0,1,9.451,0v4.141a23.338,23.338,0,0,1,11.477,6.211,22.9,22.9,0,0,1,6.706,16.2,4.726,4.726,0,0,1-9.451,0,13.412,13.412,0,1,0-26.824,0c0,10.126,7.246,11.837,14.537,13.547,10.937,2.61,21.828,5.221,21.828,22.818a22.884,22.884,0,0,1-18.183,22.413v4.141a4.726,4.726,0,1,1-9.451,0v-4.141a23.338,23.338,0,0,1-11.477-6.211,22.9,22.9,0,0,1-6.706-16.2,4.726,4.726,0,0,1,9.451,0,13.412,13.412,0,1,0,26.824,0c0-10.126-7.246-11.837-14.537-13.547-10.937-2.61-21.828-5.221-21.828-22.818a22.819,22.819,0,0,1,6.706-16.2,22.466,22.466,0,0,1,11.477-6.211v-4.141Zm4.726-23.9c-1.665,0-3.331.045-5,.18V66.248a8.759,8.759,0,0,0-8.731-8.731h-31.73a8.759,8.759,0,0,0-8.731,8.731V243.935a68.664,68.664,0,0,0-10.036,66.7H7.226a4.726,4.726,0,0,0,0,9.451H279.2a69.188,69.188,0,0,0,11.162,14.627,68.677,68.677,0,1,0,48.562-117.242h0Zm-44.6,16.472a68.291,68.291,0,0,1,30.154-14.942V67.014H294.324V233.988Zm86.458,10.352a59.109,59.109,0,1,0,17.328,41.811,58.91,58.91,0,0,0-17.328-41.811ZM227.624,110.76a8.759,8.759,0,0,0-8.731,8.731V294.027a8.759,8.759,0,0,0,8.731,8.731h31.73a8.759,8.759,0,0,0,8.731-8.731V119.491a8.759,8.759,0,0,0-8.731-8.731Zm30.92,9.5H228.389V293.217h30.155V120.256h0Zm-96.854,16.7a8.759,8.759,0,0,0-8.731,8.731V294.027a8.759,8.759,0,0,0,8.731,8.731h31.73a8.759,8.759,0,0,0,8.731-8.731V145.685a8.759,8.759,0,0,0-8.731-8.731Zm30.92,9.5H162.454V293.217h30.155V146.45h0ZM95.754,180.475h31.73a8.759,8.759,0,0,1,8.731,8.731V294.072a8.759,8.759,0,0,1-8.731,8.731H95.754a8.759,8.759,0,0,1-8.731-8.731V189.207a8.759,8.759,0,0,1,8.731-8.731Zm30.92,9.5V293.217H96.519V189.972ZM60.739,238.264H30.584v54.953H60.739V238.264Z" transform="translate(8.752 -9.09)" fill-rule="evenodd"/>
  </g>
</svg>
