<svg xmlns="http://www.w3.org/2000/svg" width="400.56" height="420.497" viewBox="0 0 400.56 420.497">
  <g id="noun-car-6511431" transform="translate(-24.754)">
    <path id="Path_74" data-name="Path 74" d="M42.946,72.685A10.869,10.869,0,1,1,32.1,61.794,10.891,10.891,0,0,1,42.946,72.685Zm47.662-60.4a10.892,10.892,0,1,0,10.847,10.892A10.9,10.9,0,0,0,90.608,12.286ZM387.652,102.3A10.892,10.892,0,1,0,398.5,113.191,10.9,10.9,0,0,0,387.652,102.3ZM342.645,39.29a10.892,10.892,0,1,0,10.847,10.892A10.9,10.9,0,0,0,342.645,39.29ZM387.652,3.285A10.892,10.892,0,1,0,398.5,14.177,10.9,10.9,0,0,0,387.652,3.285ZM131.519,255.007a33.755,33.755,0,1,1-33.755-33.755,33.792,33.792,0,0,1,33.755,33.755Zm-13.5,0A20.253,20.253,0,1,0,97.764,275.26,20.275,20.275,0,0,0,118.017,255.007Zm162.024,0A33.755,33.755,0,1,1,313.8,288.762a33.792,33.792,0,0,1-33.755-33.755Zm13.5,0A20.253,20.253,0,1,0,313.8,234.754,20.275,20.275,0,0,0,293.543,255.007Zm-132.77-6.751h90.013a6.751,6.751,0,1,0,0-13.5H160.773a6.751,6.751,0,1,0,0,13.5Zm90.013,31.5a6.751,6.751,0,1,0,0-13.5H160.773a6.751,6.751,0,1,0,0,13.5ZM406.06,318.017v27a15.771,15.771,0,0,1-15.752,15.752H374.555v38.256A24.785,24.785,0,0,1,349.8,423.782H304.795a24.785,24.785,0,0,1-24.754-24.754V360.773H131.519v38.256a24.783,24.783,0,0,1-24.754,24.754H61.758A24.783,24.783,0,0,1,37,399.029V360.773H21.252A15.771,15.771,0,0,1,5.5,345.021v-27a15.771,15.771,0,0,1,15.752-15.752H23.5V219a24.769,24.769,0,0,1,24.147-24.723l24.449-86a42.928,42.928,0,0,1,41.1-31.052h40.557a37.916,37.916,0,0,1,18.951-27.5A3.016,3.016,0,0,0,174.416,47c-.035-.672-.05-.993-.05-1.319,0-20.947,16.554-37.987,36.9-37.987a36.515,36.515,0,0,1,24.789,9.823,36.083,36.083,0,0,1,5.41-.418c17.532,0,32.595,12.887,36.164,30.107A37.811,37.811,0,0,1,302.1,77.4a42.941,42.941,0,0,1,37.359,30.874l24.449,86A24.77,24.77,0,0,1,388.057,219v83.262h2.25a15.771,15.771,0,0,1,15.752,15.752ZM167.472,77.152l33.814.035a6.75,6.75,0,0,1,6.744,6.751v38.3a13.5,13.5,0,0,0,27,0v-13.5a6.751,6.751,0,0,1,13.5,0,13.5,13.5,0,0,0,27,0V83.982a6.753,6.753,0,0,1,6.751-6.751h6.061a23.868,23.868,0,0,0-18.13-18.095,6.75,6.75,0,0,1-5.371-6.087C263.862,40.461,253.591,30.6,241.469,30.6a26.215,26.215,0,0,0-6.118.8,6.746,6.746,0,0,1-6.667-2.127A23.18,23.18,0,0,0,211.27,21.2c-12.9,0-23.4,10.983-23.4,24.485.031.435.046.756.046,1.081a16.378,16.378,0,0,1-8.674,14.781,24.323,24.323,0,0,0-11.768,15.607ZM61.694,194.248H349.863l-23.387-82.274A29.367,29.367,0,0,0,298.36,90.733h-9.318v18a26.993,26.993,0,0,1-42.022,22.433,27.006,27.006,0,0,1-52.492-8.931v-31.5H113.2a29.371,29.371,0,0,0-28.118,21.246L61.694,194.248ZM37,302.264h337.55V219A11.262,11.262,0,0,0,363.3,207.75H48.256A11.264,11.264,0,0,0,37,219ZM21.252,347.271h132.77v-31.5H21.252a2.253,2.253,0,0,0-2.25,2.25v27A2.253,2.253,0,0,0,21.252,347.271Zm96.764,13.5H50.507v38.256A11.264,11.264,0,0,0,61.758,410.28h45.007a11.264,11.264,0,0,0,11.252-11.252Zm126.019-13.5v-31.5H167.524v31.5Zm117.017,13.5h-67.51v38.256a11.262,11.262,0,0,0,11.252,11.252H349.8a11.262,11.262,0,0,0,11.252-11.252Zm31.5-42.756a2.255,2.255,0,0,0-2.25-2.25H257.538v31.5h132.77a2.255,2.255,0,0,0,2.25-2.25Z" transform="translate(19.254 -3.285)"/>
  </g>
</svg>
