<svg xmlns="http://www.w3.org/2000/svg" width="147.506" height="197.672" viewBox="0 0 147.506 197.672">
  <g id="noun-washing-machine-6566675" transform="translate(-39.182)">
    <g id="Group_100" data-name="Group 100" transform="translate(39.182 0)">
      <path id="Path_140" data-name="Path 140" d="M160.64,53.274c-.008-.1.033-.19.018-.287l-6.665-42.865A3.924,3.924,0,0,0,150.116,6.8H23.785a3.924,3.924,0,0,0-3.876,3.319L13.243,52.987c-.015.1.025.19.018.288s-.064.2-.064.316V183.063a7.97,7.97,0,0,0,7.761,7.95v9.54a3.921,3.921,0,0,0,3.922,3.922H149.02a3.921,3.921,0,0,0,3.922-3.922v-9.54a7.97,7.97,0,0,0,7.761-7.95V53.59C160.7,53.478,160.649,53.384,160.64,53.274Zm-7.781,129.789a.129.129,0,0,1-.126.126l-131.69-.126V57.513H152.858V183.063ZM27.144,14.647H146.756l5.443,35.02H21.7ZM145.1,196.631H28.8v-5.6H145.1Z" transform="translate(-13.197 -6.802)" fill="#2e3192"/>
      <path id="Path_141" data-name="Path 141" d="M70.748,9.841H22.664a3.921,3.921,0,0,0-3.922,3.922V30.905a3.921,3.921,0,0,0,3.922,3.922H70.748a3.921,3.921,0,0,0,3.922-3.922V13.764A3.922,3.922,0,0,0,70.748,9.841ZM66.826,26.983H26.586v-9.3h40.24Z" transform="translate(3.005 2.079)" fill="#2e3192"/>
      <path id="Path_142" data-name="Path 142" d="M47.21,10.244H39.269a3.922,3.922,0,1,0,0,7.845H47.21a3.922,3.922,0,1,0,0-7.845Z" transform="translate(51.534 3.255)" fill="#2e3192"/>
      <path id="Path_143" data-name="Path 143" d="M53.256,10.244H45.319a3.922,3.922,0,1,0,0,7.845h7.937a3.922,3.922,0,1,0,0-7.845Z" transform="translate(69.214 3.255)" fill="#2e3192"/>
      <path id="Path_144" data-name="Path 144" d="M47.21,13.809H39.269a3.922,3.922,0,1,0,0,7.845H47.21a3.922,3.922,0,1,0,0-7.845Z" transform="translate(51.534 13.673)" fill="#2e3192"/>
      <path id="Path_145" data-name="Path 145" d="M53.256,13.809H45.319a3.922,3.922,0,1,0,0,7.845h7.937a3.922,3.922,0,1,0,0-7.845Z" transform="translate(69.214 13.673)" fill="#2e3192"/>
      <path id="Path_146" data-name="Path 146" d="M71.288,127.769A52.731,52.731,0,1,0,18.557,75.038,52.79,52.79,0,0,0,71.288,127.769Zm0-97.617A44.886,44.886,0,1,1,26.4,75.038,44.937,44.937,0,0,1,71.288,30.152Z" transform="translate(2.465 38.51)" fill="#2e3192"/>
      <path id="Path_147" data-name="Path 147" d="M22.466,68.849a38.489,38.489,0,0,0,74.117,9.426,3.92,3.92,0,0,0-3.168-5.315L83.383,71.7v-4.9c.009-.131,0-.254,0-.385V57.1l10.032-1.258a3.92,3.92,0,0,0,3.168-5.315,38.466,38.466,0,0,0-74.131,18.23C22.455,68.79,22.463,68.819,22.466,68.849ZM87.018,80.064A30.645,30.645,0,0,1,30.552,69.881c2.866-2.411,10.822-7.426,22.923-1.9C61.323,71.558,67.3,72.69,71.715,72.69a21.782,21.782,0,0,0,3.823-.337v2.81a3.92,3.92,0,0,0,3.436,3.892ZM60.668,33.789a30.478,30.478,0,0,1,26.35,14.95l-8.044,1.009a3.92,3.92,0,0,0-3.436,3.892V64.325c-2.328.765-7.995,1.45-18.808-3.484-11.017-5.023-20.233-3.331-26.444-.15A30.66,30.66,0,0,1,60.668,33.789Z" transform="translate(13.085 49.139)" fill="#2e3192"/>
    </g>
  </g>
</svg>
