<svg xmlns="http://www.w3.org/2000/svg" width="175.361" height="176.197" viewBox="0 0 175.361 176.197">
  <path id="bxl-whatsapp_1_" data-name="bxl-whatsapp (1)" d="M152.811,28.609A87.337,87.337,0,0,0,15.381,133.962L3,179.2,49.286,167.05A87.35,87.35,0,0,0,91.011,177.68h.039A87.343,87.343,0,0,0,152.811,28.609M91.05,162.945h-.029a72.427,72.427,0,0,1-36.946-10.129l-2.639-1.572-27.466,7.207,7.324-26.776-1.722-2.743A72.567,72.567,0,1,1,91.05,162.945m39.809-54.359c-2.188-1.1-12.906-6.371-14.91-7.1s-3.443-1.089-4.9,1.089-5.641,7.09-6.915,8.549-2.548,1.634-4.727.545a59.6,59.6,0,0,1-17.546-10.825A65.718,65.718,0,0,1,69.721,85.73c-1.274-2.188-.136-3.365.963-4.455.982-.973,2.179-2.548,3.268-3.822a14.92,14.92,0,0,0,2.179-3.638,3.986,3.986,0,0,0-.185-3.822c-.545-1.1-4.912-11.837-6.73-16.2-1.76-4.231-3.56-3.667-4.9-3.725q-2.085-.085-4.172-.078a8.034,8.034,0,0,0-5.826,2.723c-2,2.188-7.635,7.46-7.635,18.2s7.82,21.115,8.909,22.574,15.387,23.488,37.27,32.942a129.026,129.026,0,0,0,12.44,4.6,29.973,29.973,0,0,0,13.743.866c4.192-.622,12.906-5.272,14.725-10.368s1.819-9.463,1.274-10.378-2.013-1.469-4.182-2.558" transform="translate(-3 -3)" fill="#fff" fill-rule="evenodd"/>
</svg>
